<svg xmlns="http://www.w3.org/2000/svg" width="1600" height="372" viewBox="0 0 1600 372" role="img"
  aria-label="Star growth across Mahdi Mortazavi's open-source repositories">
  <title>Cumulative GitHub stars — 343 total, 46 in the last 30 days</title>
  
  <defs>
    <linearGradient id="bg" x1="0" y1="0" x2="1" y2="1">
      <stop offset="0%" stop-color="#0D1117"/>
      <stop offset="55%" stop-color="#0F1420"/>
      <stop offset="100%" stop-color="#161B22"/>
    </linearGradient>
    <radialGradient id="aura1" cx="50%" cy="50%" r="50%">
      <stop offset="0%" stop-color="#5E5CE6" stop-opacity=".55"/>
      <stop offset="100%" stop-color="#5E5CE6" stop-opacity="0"/>
    </radialGradient>
    <radialGradient id="aura2" cx="50%" cy="50%" r="50%">
      <stop offset="0%" stop-color="#0A84FF" stop-opacity=".38"/>
      <stop offset="100%" stop-color="#0A84FF" stop-opacity="0"/>
    </radialGradient>
    <linearGradient id="glass" x1="0" y1="0" x2="0.6" y2="1">
      <stop offset="0%" stop-color="#FFFFFF" stop-opacity=".13"/>
      <stop offset="100%" stop-color="#FFFFFF" stop-opacity=".045"/>
    </linearGradient>
    <linearGradient id="mark" x1="0" y1="0" x2="1" y2="1">
      <stop offset="0%" stop-color="#5E5CE6"/>
      <stop offset="100%" stop-color="#0A84FF"/>
    </linearGradient>
    <linearGradient id="hair" x1="0" y1="0" x2="1" y2="0">
      <stop offset="0%" stop-color="#5E5CE6" stop-opacity="0"/>
      <stop offset="50%" stop-color="#5E5CE6"/>
      <stop offset="100%" stop-color="#0A84FF" stop-opacity="0"/>
    </linearGradient>
    <filter id="soft" x="-60%" y="-60%" width="220%" height="220%">
      <feGaussianBlur stdDeviation="26"/>
    </filter>
    <filter id="coreglow" x="-200%" y="-200%" width="500%" height="500%">
      <feGaussianBlur stdDeviation="18"/>
    </filter>
    <pattern id="grid" width="26" height="26" patternUnits="userSpaceOnUse">
      <circle cx="1.2" cy="1.2" r="1.2" fill="#FFFFFF" fill-opacity=".05"/>
    </pattern>
  </defs>
  <linearGradient id="gfill" x1="0" y1="0" x2="0" y2="1">
    <stop offset="0%" stop-color="#5E5CE6" stop-opacity=".55"/>
    <stop offset="100%" stop-color="#5E5CE6" stop-opacity="0"/>
  </linearGradient>
  
  <rect width="1600" height="372" rx="22" fill="url(#bg)"/>
  <g filter="url(#soft)" opacity=".85">
    <ellipse cx="1540" cy="40" rx="384" ry="186" fill="url(#aura1)"/>
    <ellipse cx="60" cy="392" rx="416" ry="186" fill="url(#aura2)"/>
  </g>
  <rect width="1600" height="372" rx="22" fill="url(#grid)"/>
  <rect x="0" y="0" width="1600" height="3" fill="url(#hair)"/>
  
  <text x="64" y="62" font-family="system-ui,-apple-system,'Segoe UI',Roboto,'Helvetica Neue',Arial,sans-serif" font-size="30" font-weight="700" letter-spacing="2.5" fill="#5E5CE6">GROWTH · رشد</text>
  <text x="64" y="162" font-family="system-ui,-apple-system,'Segoe UI',Roboto,'Helvetica Neue',Arial,sans-serif" font-size="104" font-weight="800" letter-spacing="-2" fill="#F5F5F7">343<tspan dx="18" font-size="34" font-weight="600" letter-spacing="0" fill="#A1A1A6">total stars</tspan></text>
  <text x="64" y="203" font-family="system-ui,-apple-system,'Segoe UI',Roboto,'Helvetica Neue',Arial,sans-serif" font-size="26" font-weight="500" fill="#8A93A3"><tspan fill="#30D158" font-weight="700">▲ +46</tspan> in the last 30 days</text>
  <line x1="64" y1="302.0" x2="1536" y2="302.0" stroke="#FFFFFF" stroke-opacity=".07"/><line x1="64" y1="257.0" x2="1536" y2="257.0" stroke="#FFFFFF" stroke-opacity=".07"/><line x1="64" y1="212.0" x2="1536" y2="212.0" stroke="#FFFFFF" stroke-opacity=".07"/>
  <path d="M64.0,284.0L84.4,284.0L104.9,284.0L125.3,279.6L145.8,279.6L166.2,273.7L186.7,273.7L207.1,275.2L227.6,275.2L248.0,275.2L268.4,273.7L288.9,273.7L309.3,270.8L329.8,270.8L350.2,270.8L370.7,270.8L391.1,270.8L411.6,270.8L432.0,270.8L452.4,266.4L472.9,266.4L493.3,260.5L513.8,260.5L534.2,260.5L554.7,259.0L575.1,259.0L595.6,256.1L616.0,256.1L636.4,251.7L656.9,251.7L677.3,251.7L697.8,250.2L718.2,250.2L738.7,248.7L759.1,248.7L779.6,245.8L800.0,245.8L820.4,245.8L840.9,245.8L861.3,245.8L881.8,245.8L902.2,245.8L922.7,245.8L943.1,245.8L963.6,245.8L984.0,244.3L1004.4,244.3L1024.9,242.9L1045.3,242.9L1065.8,242.9L1086.2,242.9L1106.7,242.9L1127.1,237.0L1147.6,237.0L1168.0,228.2L1188.4,228.2L1208.9,225.2L1229.3,225.2L1249.8,225.2L1270.2,223.8L1290.7,223.8L1311.1,223.8L1331.6,223.8L1352.0,222.3L1372.4,222.3L1392.9,222.3L1413.3,216.4L1433.8,216.4L1454.2,213.5L1474.7,213.5L1495.1,212.0L1515.6,212.0L1536.0,212.0L1536.0,302L64,302Z" fill="url(#gfill)"/>
  <path d="M64.0,284.0L84.4,284.0L104.9,284.0L125.3,279.6L145.8,279.6L166.2,273.7L186.7,273.7L207.1,275.2L227.6,275.2L248.0,275.2L268.4,273.7L288.9,273.7L309.3,270.8L329.8,270.8L350.2,270.8L370.7,270.8L391.1,270.8L411.6,270.8L432.0,270.8L452.4,266.4L472.9,266.4L493.3,260.5L513.8,260.5L534.2,260.5L554.7,259.0L575.1,259.0L595.6,256.1L616.0,256.1L636.4,251.7L656.9,251.7L677.3,251.7L697.8,250.2L718.2,250.2L738.7,248.7L759.1,248.7L779.6,245.8L800.0,245.8L820.4,245.8L840.9,245.8L861.3,245.8L881.8,245.8L902.2,245.8L922.7,245.8L943.1,245.8L963.6,245.8L984.0,244.3L1004.4,244.3L1024.9,242.9L1045.3,242.9L1065.8,242.9L1086.2,242.9L1106.7,242.9L1127.1,237.0L1147.6,237.0L1168.0,228.2L1188.4,228.2L1208.9,225.2L1229.3,225.2L1249.8,225.2L1270.2,223.8L1290.7,223.8L1311.1,223.8L1331.6,223.8L1352.0,222.3L1372.4,222.3L1392.9,222.3L1413.3,216.4L1433.8,216.4L1454.2,213.5L1474.7,213.5L1495.1,212.0L1515.6,212.0L1536.0,212.0" fill="none" stroke="#5E5CE6" stroke-width="3.8" stroke-linejoin="round" stroke-linecap="round"
    stroke-dasharray="4000" stroke-dashoffset="4000">
    <animate attributeName="stroke-dashoffset" from="4000" to="0" dur="2.2s" fill="freeze" calcMode="spline" keySplines="0.2 0.8 0.2 1"/>
  </path>
  <circle cx="1536.0" cy="212.0" r="8" fill="#FFFFFF"/>
  <circle cx="1536.0" cy="212.0" r="8" fill="none" stroke="#FFFFFF" stroke-opacity=".7">
    <animate attributeName="r" values="6;17;6" dur="2.6s" repeatCount="indefinite"/>
    <animate attributeName="stroke-opacity" values=".7;0;.7" dur="2.6s" repeatCount="indefinite"/>
  </circle>
  <text x="64.0" y="355" text-anchor="start"
      font-family="system-ui,-apple-system,'Segoe UI',Roboto,'Helvetica Neue',Arial,sans-serif" font-size="26" fill="#8A93A3">2 Sept</text><text x="800.0" y="355" text-anchor="middle"
      font-family="system-ui,-apple-system,'Segoe UI',Roboto,'Helvetica Neue',Arial,sans-serif" font-size="26" fill="#8A93A3">17 Sept</text><text x="1536.0" y="355" text-anchor="end"
      font-family="system-ui,-apple-system,'Segoe UI',Roboto,'Helvetica Neue',Arial,sans-serif" font-size="26" fill="#8A93A3">2 Oct</text><text x="64" y="327.0" font-family="system-ui,-apple-system,'Segoe UI',Roboto,'Helvetica Neue',Arial,sans-serif" font-size="26" fill="#8A93A3">from 282</text>
</svg>