<svg xmlns="http://www.w3.org/2000/svg" width="1600" height="372" viewBox="0 0 1600 372" role="img"
  aria-label="Star growth across Mahdi Mortazavi's open-source repositories">
  <title>Cumulative GitHub stars — 320 total, 26 in the last 30 days</title>
  
  <defs>
    <linearGradient id="bg" x1="0" y1="0" x2="1" y2="1">
      <stop offset="0%" stop-color="#0D1117"/>
      <stop offset="55%" stop-color="#0F1420"/>
      <stop offset="100%" stop-color="#161B22"/>
    </linearGradient>
    <radialGradient id="aura1" cx="50%" cy="50%" r="50%">
      <stop offset="0%" stop-color="#5E5CE6" stop-opacity=".55"/>
      <stop offset="100%" stop-color="#5E5CE6" stop-opacity="0"/>
    </radialGradient>
    <radialGradient id="aura2" cx="50%" cy="50%" r="50%">
      <stop offset="0%" stop-color="#0A84FF" stop-opacity=".38"/>
      <stop offset="100%" stop-color="#0A84FF" stop-opacity="0"/>
    </radialGradient>
    <linearGradient id="glass" x1="0" y1="0" x2="0.6" y2="1">
      <stop offset="0%" stop-color="#FFFFFF" stop-opacity=".13"/>
      <stop offset="100%" stop-color="#FFFFFF" stop-opacity=".045"/>
    </linearGradient>
    <linearGradient id="mark" x1="0" y1="0" x2="1" y2="1">
      <stop offset="0%" stop-color="#5E5CE6"/>
      <stop offset="100%" stop-color="#0A84FF"/>
    </linearGradient>
    <linearGradient id="hair" x1="0" y1="0" x2="1" y2="0">
      <stop offset="0%" stop-color="#5E5CE6" stop-opacity="0"/>
      <stop offset="50%" stop-color="#5E5CE6"/>
      <stop offset="100%" stop-color="#0A84FF" stop-opacity="0"/>
    </linearGradient>
    <filter id="soft" x="-60%" y="-60%" width="220%" height="220%">
      <feGaussianBlur stdDeviation="26"/>
    </filter>
    <filter id="coreglow" x="-200%" y="-200%" width="500%" height="500%">
      <feGaussianBlur stdDeviation="18"/>
    </filter>
    <pattern id="grid" width="26" height="26" patternUnits="userSpaceOnUse">
      <circle cx="1.2" cy="1.2" r="1.2" fill="#FFFFFF" fill-opacity=".05"/>
    </pattern>
  </defs>
  <linearGradient id="gfill" x1="0" y1="0" x2="0" y2="1">
    <stop offset="0%" stop-color="#5E5CE6" stop-opacity=".55"/>
    <stop offset="100%" stop-color="#5E5CE6" stop-opacity="0"/>
  </linearGradient>
  
  <rect width="1600" height="372" rx="22" fill="url(#bg)"/>
  <g filter="url(#soft)" opacity=".85">
    <ellipse cx="1540" cy="40" rx="384" ry="186" fill="url(#aura1)"/>
    <ellipse cx="60" cy="392" rx="416" ry="186" fill="url(#aura2)"/>
  </g>
  <rect width="1600" height="372" rx="22" fill="url(#grid)"/>
  <rect x="0" y="0" width="1600" height="3" fill="url(#hair)"/>
  
  <text x="64" y="62" font-family="system-ui,-apple-system,'Segoe UI',Roboto,'Helvetica Neue',Arial,sans-serif" font-size="30" font-weight="700" letter-spacing="2.5" fill="#5E5CE6">GROWTH · رشد</text>
  <text x="64" y="162" font-family="system-ui,-apple-system,'Segoe UI',Roboto,'Helvetica Neue',Arial,sans-serif" font-size="104" font-weight="800" letter-spacing="-2" fill="#F5F5F7">320<tspan dx="18" font-size="34" font-weight="600" letter-spacing="0" fill="#A1A1A6">total stars</tspan></text>
  <text x="64" y="203" font-family="system-ui,-apple-system,'Segoe UI',Roboto,'Helvetica Neue',Arial,sans-serif" font-size="26" font-weight="500" fill="#8A93A3"><tspan fill="#30D158" font-weight="700">▲ +26</tspan> in the last 30 days</text>
  <line x1="64" y1="302.0" x2="1536" y2="302.0" stroke="#FFFFFF" stroke-opacity=".07"/><line x1="64" y1="257.0" x2="1536" y2="257.0" stroke="#FFFFFF" stroke-opacity=".07"/><line x1="64" y1="212.0" x2="1536" y2="212.0" stroke="#FFFFFF" stroke-opacity=".07"/>
  <path d="M64.0,284.0L84.4,284.0L104.9,284.0L125.3,284.0L145.8,284.0L166.2,275.7L186.7,275.7L207.1,275.7L227.6,275.7L248.0,264.6L268.4,264.6L288.9,264.6L309.3,264.6L329.8,267.4L350.2,267.4L370.7,267.4L391.1,267.4L411.6,267.4L432.0,264.6L452.4,264.6L472.9,264.6L493.3,264.6L513.8,259.1L534.2,259.1L554.7,259.1L575.1,259.1L595.6,259.1L616.0,259.1L636.4,259.1L656.9,259.1L677.3,259.1L697.8,259.1L718.2,259.1L738.7,259.1L759.1,259.1L779.6,250.8L800.0,250.8L820.4,250.8L840.9,250.8L861.3,239.7L881.8,239.7L902.2,239.7L922.7,239.7L943.1,236.9L963.6,236.9L984.0,236.9L1004.4,236.9L1024.9,231.4L1045.3,231.4L1065.8,231.4L1086.2,231.4L1106.7,231.4L1127.1,223.1L1147.6,223.1L1168.0,223.1L1188.4,223.1L1208.9,220.3L1229.3,220.3L1249.8,220.3L1270.2,220.3L1290.7,217.5L1311.1,217.5L1331.6,217.5L1352.0,217.5L1372.4,217.5L1392.9,212.0L1413.3,212.0L1433.8,212.0L1454.2,212.0L1474.7,212.0L1495.1,212.0L1515.6,212.0L1536.0,212.0L1536.0,302L64,302Z" fill="url(#gfill)"/>
  <path d="M64.0,284.0L84.4,284.0L104.9,284.0L125.3,284.0L145.8,284.0L166.2,275.7L186.7,275.7L207.1,275.7L227.6,275.7L248.0,264.6L268.4,264.6L288.9,264.6L309.3,264.6L329.8,267.4L350.2,267.4L370.7,267.4L391.1,267.4L411.6,267.4L432.0,264.6L452.4,264.6L472.9,264.6L493.3,264.6L513.8,259.1L534.2,259.1L554.7,259.1L575.1,259.1L595.6,259.1L616.0,259.1L636.4,259.1L656.9,259.1L677.3,259.1L697.8,259.1L718.2,259.1L738.7,259.1L759.1,259.1L779.6,250.8L800.0,250.8L820.4,250.8L840.9,250.8L861.3,239.7L881.8,239.7L902.2,239.7L922.7,239.7L943.1,236.9L963.6,236.9L984.0,236.9L1004.4,236.9L1024.9,231.4L1045.3,231.4L1065.8,231.4L1086.2,231.4L1106.7,231.4L1127.1,223.1L1147.6,223.1L1168.0,223.1L1188.4,223.1L1208.9,220.3L1229.3,220.3L1249.8,220.3L1270.2,220.3L1290.7,217.5L1311.1,217.5L1331.6,217.5L1352.0,217.5L1372.4,217.5L1392.9,212.0L1413.3,212.0L1433.8,212.0L1454.2,212.0L1474.7,212.0L1495.1,212.0L1515.6,212.0L1536.0,212.0" fill="none" stroke="#5E5CE6" stroke-width="3.8" stroke-linejoin="round" stroke-linecap="round"
    stroke-dasharray="4000" stroke-dashoffset="4000">
    <animate attributeName="stroke-dashoffset" from="4000" to="0" dur="2.2s" fill="freeze" calcMode="spline" keySplines="0.2 0.8 0.2 1"/>
  </path>
  <circle cx="1536.0" cy="212.0" r="8" fill="#FFFFFF"/>
  <circle cx="1536.0" cy="212.0" r="8" fill="none" stroke="#FFFFFF" stroke-opacity=".7">
    <animate attributeName="r" values="6;17;6" dur="2.6s" repeatCount="indefinite"/>
    <animate attributeName="stroke-opacity" values=".7;0;.7" dur="2.6s" repeatCount="indefinite"/>
  </circle>
  <text x="64.0" y="355" text-anchor="start"
      font-family="system-ui,-apple-system,'Segoe UI',Roboto,'Helvetica Neue',Arial,sans-serif" font-size="26" fill="#8A93A3">2 Sept</text><text x="800.0" y="355" text-anchor="middle"
      font-family="system-ui,-apple-system,'Segoe UI',Roboto,'Helvetica Neue',Arial,sans-serif" font-size="26" fill="#8A93A3">10 Sept</text><text x="1536.0" y="355" text-anchor="end"
      font-family="system-ui,-apple-system,'Segoe UI',Roboto,'Helvetica Neue',Arial,sans-serif" font-size="26" fill="#8A93A3">18 Sept</text><text x="64" y="327.0" font-family="system-ui,-apple-system,'Segoe UI',Roboto,'Helvetica Neue',Arial,sans-serif" font-size="26" fill="#8A93A3">from 288</text>
</svg>