<svg xmlns="http://www.w3.org/2000/svg" width="1280" height="250" viewBox="0 0 1280 250" role="img"
  aria-label="Star growth across Mahdi Mortazavi's open-source repositories">
  <title>Cumulative GitHub stars — 301 total, 7 in the last 30 days</title>
  
  <defs>
    <linearGradient id="bg" x1="0" y1="0" x2="1" y2="1">
      <stop offset="0%" stop-color="#0D1117"/>
      <stop offset="55%" stop-color="#0F1420"/>
      <stop offset="100%" stop-color="#161B22"/>
    </linearGradient>
    <radialGradient id="aura1" cx="50%" cy="50%" r="50%">
      <stop offset="0%" stop-color="#FF9F0A" stop-opacity=".55"/>
      <stop offset="100%" stop-color="#FF9F0A" stop-opacity="0"/>
    </radialGradient>
    <radialGradient id="aura2" cx="50%" cy="50%" r="50%">
      <stop offset="0%" stop-color="#FF375F" stop-opacity=".38"/>
      <stop offset="100%" stop-color="#FF375F" stop-opacity="0"/>
    </radialGradient>
    <linearGradient id="glass" x1="0" y1="0" x2="0.6" y2="1">
      <stop offset="0%" stop-color="#FFFFFF" stop-opacity=".13"/>
      <stop offset="100%" stop-color="#FFFFFF" stop-opacity=".045"/>
    </linearGradient>
    <linearGradient id="mark" x1="0" y1="0" x2="1" y2="1">
      <stop offset="0%" stop-color="#FF9F0A"/>
      <stop offset="100%" stop-color="#FF375F"/>
    </linearGradient>
    <linearGradient id="hair" x1="0" y1="0" x2="1" y2="0">
      <stop offset="0%" stop-color="#FF9F0A" stop-opacity="0"/>
      <stop offset="50%" stop-color="#FF9F0A"/>
      <stop offset="100%" stop-color="#FF375F" stop-opacity="0"/>
    </linearGradient>
    <filter id="soft" x="-60%" y="-60%" width="220%" height="220%">
      <feGaussianBlur stdDeviation="26"/>
    </filter>
    <filter id="coreglow" x="-200%" y="-200%" width="500%" height="500%">
      <feGaussianBlur stdDeviation="18"/>
    </filter>
    <pattern id="grid" width="26" height="26" patternUnits="userSpaceOnUse">
      <circle cx="1.2" cy="1.2" r="1.2" fill="#FFFFFF" fill-opacity=".05"/>
    </pattern>
  </defs>
  <linearGradient id="gfill" x1="0" y1="0" x2="0" y2="1">
    <stop offset="0%" stop-color="#FF9F0A" stop-opacity=".55"/>
    <stop offset="100%" stop-color="#FF9F0A" stop-opacity="0"/>
  </linearGradient>
  <rect width="1280" height="250" rx="20" fill="url(#bg)"/>
  <g filter="url(#soft)" opacity=".65"><ellipse cx="1150" cy="30" rx="280" ry="170" fill="url(#aura1)"/></g>
  <rect width="1280" height="250" rx="20" fill="url(#grid)"/>
  <text x="72" y="40" font-family="system-ui,-apple-system,'Segoe UI',Roboto,'Helvetica Neue',Arial,sans-serif" font-size="16" font-weight="700" letter-spacing="3" fill="#FF9F0A">GROWTH · STARS OVER TIME</text>
  <text x="72" y="66" font-family="system-ui,-apple-system,'Segoe UI',Roboto,'Helvetica Neue',Arial,sans-serif" font-size="15" font-weight="500" fill="#8A93A3">301 total <tspan fill="#30D158" font-weight="700">▲ +7</tspan> in the last 30 days</text>
  <line x1="72" y1="204.0" x2="1208" y2="204.0"
      stroke="#FFFFFF" stroke-opacity=".07"/><line x1="72" y1="141.0" x2="1208" y2="141.0"
      stroke="#FFFFFF" stroke-opacity=".07"/><line x1="72" y1="78.0" x2="1208" y2="78.0"
      stroke="#FFFFFF" stroke-opacity=".07"/>
  <path d="M72.0,80.9L87.8,80.9L103.6,80.9L119.3,80.9L135.1,80.9L150.9,80.9L166.7,80.9L182.4,80.9L198.2,80.9L214.0,80.9L229.8,80.9L245.6,80.9L261.3,80.9L277.1,80.9L292.9,80.9L308.7,80.9L324.4,80.9L340.2,80.9L356.0,80.9L371.8,80.9L387.6,80.9L403.3,80.9L419.1,80.9L434.9,79.7L450.7,79.7L466.4,79.7L482.2,79.7L498.0,79.7L513.8,79.7L529.6,79.7L545.3,79.7L561.1,79.7L576.9,79.7L592.7,79.7L608.4,79.7L624.2,79.7L640.0,79.7L655.8,79.7L671.6,79.7L687.3,79.7L703.1,79.7L718.9,79.7L734.7,79.7L750.4,79.7L766.2,79.7L782.0,79.7L797.8,78.0L813.6,78.0L829.3,78.0L845.1,78.0L860.9,78.0L876.7,78.0L892.4,78.0L908.2,78.0L924.0,78.0L939.8,78.0L955.6,78.0L971.3,78.0L987.1,78.0L1002.9,78.0L1018.7,78.0L1034.4,78.0L1050.2,78.0L1066.0,78.0L1081.8,78.0L1097.6,78.0L1113.3,78.0L1129.1,78.0L1144.9,78.0L1160.7,78.0L1176.4,78.0L1192.2,78.0L1208.0,78.0L1208.0,204L72,204Z" fill="url(#gfill)"/>
  <path d="M72.0,80.9L87.8,80.9L103.6,80.9L119.3,80.9L135.1,80.9L150.9,80.9L166.7,80.9L182.4,80.9L198.2,80.9L214.0,80.9L229.8,80.9L245.6,80.9L261.3,80.9L277.1,80.9L292.9,80.9L308.7,80.9L324.4,80.9L340.2,80.9L356.0,80.9L371.8,80.9L387.6,80.9L403.3,80.9L419.1,80.9L434.9,79.7L450.7,79.7L466.4,79.7L482.2,79.7L498.0,79.7L513.8,79.7L529.6,79.7L545.3,79.7L561.1,79.7L576.9,79.7L592.7,79.7L608.4,79.7L624.2,79.7L640.0,79.7L655.8,79.7L671.6,79.7L687.3,79.7L703.1,79.7L718.9,79.7L734.7,79.7L750.4,79.7L766.2,79.7L782.0,79.7L797.8,78.0L813.6,78.0L829.3,78.0L845.1,78.0L860.9,78.0L876.7,78.0L892.4,78.0L908.2,78.0L924.0,78.0L939.8,78.0L955.6,78.0L971.3,78.0L987.1,78.0L1002.9,78.0L1018.7,78.0L1034.4,78.0L1050.2,78.0L1066.0,78.0L1081.8,78.0L1097.6,78.0L1113.3,78.0L1129.1,78.0L1144.9,78.0L1160.7,78.0L1176.4,78.0L1192.2,78.0L1208.0,78.0" fill="none" stroke="#FF9F0A" stroke-width="3" stroke-linejoin="round" stroke-linecap="round"
    stroke-dasharray="4000" stroke-dashoffset="4000">
    <animate attributeName="stroke-dashoffset" from="4000" to="0" dur="2.2s" fill="freeze" calcMode="spline" keySplines="0.2 0.8 0.2 1"/>
  </path>
  <circle cx="1208.0" cy="78.0" r="6" fill="#FFFFFF"/>
  <circle cx="1208.0" cy="78.0" r="6" fill="none" stroke="#FFFFFF" stroke-opacity=".7">
    <animate attributeName="r" values="6;17;6" dur="2.6s" repeatCount="indefinite"/>
    <animate attributeName="stroke-opacity" values=".7;0;.7" dur="2.6s" repeatCount="indefinite"/>
  </circle>
  <text x="72.0" y="234" text-anchor="start"
      font-family="system-ui,-apple-system,'Segoe UI',Roboto,'Helvetica Neue',Arial,sans-serif" font-size="13" fill="#8A93A3">Sept 26</text><text x="640.0" y="234" text-anchor="middle"
      font-family="system-ui,-apple-system,'Segoe UI',Roboto,'Helvetica Neue',Arial,sans-serif" font-size="13" fill="#8A93A3">Sept 26</text><text x="1208.0" y="234" text-anchor="end"
      font-family="system-ui,-apple-system,'Segoe UI',Roboto,'Helvetica Neue',Arial,sans-serif" font-size="13" fill="#8A93A3">Sept 26</text>
</svg>