<svg xmlns="http://www.w3.org/2000/svg" width="1600" height="372" viewBox="0 0 1600 372" role="img"
  aria-label="Star growth across Mahdi Mortazavi's open-source repositories">
  <title>Cumulative GitHub stars — 303 total, 9 in the last 30 days</title>
  
  <defs>
    <linearGradient id="bg" x1="0" y1="0" x2="1" y2="1">
      <stop offset="0%" stop-color="#0D1117"/>
      <stop offset="55%" stop-color="#0F1420"/>
      <stop offset="100%" stop-color="#161B22"/>
    </linearGradient>
    <radialGradient id="aura1" cx="50%" cy="50%" r="50%">
      <stop offset="0%" stop-color="#5E5CE6" stop-opacity=".55"/>
      <stop offset="100%" stop-color="#5E5CE6" stop-opacity="0"/>
    </radialGradient>
    <radialGradient id="aura2" cx="50%" cy="50%" r="50%">
      <stop offset="0%" stop-color="#FF375F" stop-opacity=".38"/>
      <stop offset="100%" stop-color="#FF375F" stop-opacity="0"/>
    </radialGradient>
    <linearGradient id="glass" x1="0" y1="0" x2="0.6" y2="1">
      <stop offset="0%" stop-color="#FFFFFF" stop-opacity=".13"/>
      <stop offset="100%" stop-color="#FFFFFF" stop-opacity=".045"/>
    </linearGradient>
    <linearGradient id="mark" x1="0" y1="0" x2="1" y2="1">
      <stop offset="0%" stop-color="#5E5CE6"/>
      <stop offset="100%" stop-color="#FF375F"/>
    </linearGradient>
    <linearGradient id="hair" x1="0" y1="0" x2="1" y2="0">
      <stop offset="0%" stop-color="#5E5CE6" stop-opacity="0"/>
      <stop offset="50%" stop-color="#5E5CE6"/>
      <stop offset="100%" stop-color="#FF375F" stop-opacity="0"/>
    </linearGradient>
    <filter id="soft" x="-60%" y="-60%" width="220%" height="220%">
      <feGaussianBlur stdDeviation="26"/>
    </filter>
    <filter id="coreglow" x="-200%" y="-200%" width="500%" height="500%">
      <feGaussianBlur stdDeviation="18"/>
    </filter>
    <pattern id="grid" width="26" height="26" patternUnits="userSpaceOnUse">
      <circle cx="1.2" cy="1.2" r="1.2" fill="#FFFFFF" fill-opacity=".05"/>
    </pattern>
  </defs>
  <linearGradient id="gfill" x1="0" y1="0" x2="0" y2="1">
    <stop offset="0%" stop-color="#5E5CE6" stop-opacity=".55"/>
    <stop offset="100%" stop-color="#5E5CE6" stop-opacity="0"/>
  </linearGradient>
  
  <rect width="1600" height="372" rx="22" fill="url(#bg)"/>
  <g filter="url(#soft)" opacity=".85">
    <ellipse cx="1540" cy="40" rx="384" ry="186" fill="url(#aura1)"/>
    <ellipse cx="60" cy="392" rx="416" ry="186" fill="url(#aura2)"/>
  </g>
  <rect width="1600" height="372" rx="22" fill="url(#grid)"/>
  <rect x="0" y="0" width="1600" height="3" fill="url(#hair)"/>
  
  <text x="64" y="62" font-family="system-ui,-apple-system,'Segoe UI',Roboto,'Helvetica Neue',Arial,sans-serif" font-size="30" font-weight="700" letter-spacing="2.5" fill="#5E5CE6">GROWTH · رشد</text>
  <text x="64" y="162" font-family="system-ui,-apple-system,'Segoe UI',Roboto,'Helvetica Neue',Arial,sans-serif" font-size="104" font-weight="800" letter-spacing="-2" fill="#F5F5F7">303<tspan dx="18" font-size="34" font-weight="600" letter-spacing="0" fill="#A1A1A6">total stars</tspan></text>
  <text x="64" y="203" font-family="system-ui,-apple-system,'Segoe UI',Roboto,'Helvetica Neue',Arial,sans-serif" font-size="26" font-weight="500" fill="#8A93A3"><tspan fill="#30D158" font-weight="700">▲ +9</tspan> in the last 30 days</text>
  <line x1="64" y1="302.0" x2="1536" y2="302.0" stroke="#FFFFFF" stroke-opacity=".07"/><line x1="64" y1="257.0" x2="1536" y2="257.0" stroke="#FFFFFF" stroke-opacity=".07"/><line x1="64" y1="212.0" x2="1536" y2="212.0" stroke="#FFFFFF" stroke-opacity=".07"/>
  <path d="M64.0,284.0L84.4,284.0L104.9,284.0L125.3,284.0L145.8,284.0L166.2,284.0L186.7,284.0L207.1,284.0L227.6,284.0L248.0,284.0L268.4,260.0L288.9,260.0L309.3,260.0L329.8,260.0L350.2,260.0L370.7,260.0L391.1,260.0L411.6,260.0L432.0,260.0L452.4,228.0L472.9,228.0L493.3,228.0L513.8,228.0L534.2,228.0L554.7,228.0L575.1,228.0L595.6,228.0L616.0,228.0L636.4,228.0L656.9,236.0L677.3,236.0L697.8,236.0L718.2,236.0L738.7,236.0L759.1,236.0L779.6,236.0L800.0,236.0L820.4,236.0L840.9,228.0L861.3,228.0L881.8,228.0L902.2,228.0L922.7,228.0L943.1,228.0L963.6,228.0L984.0,228.0L1004.4,228.0L1024.9,212.0L1045.3,212.0L1065.8,212.0L1086.2,212.0L1106.7,212.0L1127.1,212.0L1147.6,212.0L1168.0,212.0L1188.4,212.0L1208.9,212.0L1229.3,212.0L1249.8,212.0L1270.2,212.0L1290.7,212.0L1311.1,212.0L1331.6,212.0L1352.0,212.0L1372.4,212.0L1392.9,212.0L1413.3,212.0L1433.8,212.0L1454.2,212.0L1474.7,212.0L1495.1,212.0L1515.6,212.0L1536.0,212.0L1536.0,302L64,302Z" fill="url(#gfill)"/>
  <path d="M64.0,284.0L84.4,284.0L104.9,284.0L125.3,284.0L145.8,284.0L166.2,284.0L186.7,284.0L207.1,284.0L227.6,284.0L248.0,284.0L268.4,260.0L288.9,260.0L309.3,260.0L329.8,260.0L350.2,260.0L370.7,260.0L391.1,260.0L411.6,260.0L432.0,260.0L452.4,228.0L472.9,228.0L493.3,228.0L513.8,228.0L534.2,228.0L554.7,228.0L575.1,228.0L595.6,228.0L616.0,228.0L636.4,228.0L656.9,236.0L677.3,236.0L697.8,236.0L718.2,236.0L738.7,236.0L759.1,236.0L779.6,236.0L800.0,236.0L820.4,236.0L840.9,228.0L861.3,228.0L881.8,228.0L902.2,228.0L922.7,228.0L943.1,228.0L963.6,228.0L984.0,228.0L1004.4,228.0L1024.9,212.0L1045.3,212.0L1065.8,212.0L1086.2,212.0L1106.7,212.0L1127.1,212.0L1147.6,212.0L1168.0,212.0L1188.4,212.0L1208.9,212.0L1229.3,212.0L1249.8,212.0L1270.2,212.0L1290.7,212.0L1311.1,212.0L1331.6,212.0L1352.0,212.0L1372.4,212.0L1392.9,212.0L1413.3,212.0L1433.8,212.0L1454.2,212.0L1474.7,212.0L1495.1,212.0L1515.6,212.0L1536.0,212.0" fill="none" stroke="#5E5CE6" stroke-width="3.8" stroke-linejoin="round" stroke-linecap="round"
    stroke-dasharray="4000" stroke-dashoffset="4000">
    <animate attributeName="stroke-dashoffset" from="4000" to="0" dur="2.2s" fill="freeze" calcMode="spline" keySplines="0.2 0.8 0.2 1"/>
  </path>
  <circle cx="1536.0" cy="212.0" r="8" fill="#FFFFFF"/>
  <circle cx="1536.0" cy="212.0" r="8" fill="none" stroke="#FFFFFF" stroke-opacity=".7">
    <animate attributeName="r" values="6;17;6" dur="2.6s" repeatCount="indefinite"/>
    <animate attributeName="stroke-opacity" values=".7;0;.7" dur="2.6s" repeatCount="indefinite"/>
  </circle>
  <text x="64.0" y="355" text-anchor="start"
      font-family="system-ui,-apple-system,'Segoe UI',Roboto,'Helvetica Neue',Arial,sans-serif" font-size="26" fill="#8A93A3">2 Sept</text><text x="800.0" y="355" text-anchor="middle"
      font-family="system-ui,-apple-system,'Segoe UI',Roboto,'Helvetica Neue',Arial,sans-serif" font-size="26" fill="#8A93A3">5 Sept</text><text x="1536.0" y="355" text-anchor="end"
      font-family="system-ui,-apple-system,'Segoe UI',Roboto,'Helvetica Neue',Arial,sans-serif" font-size="26" fill="#8A93A3">9 Sept</text><text x="64" y="327.0" font-family="system-ui,-apple-system,'Segoe UI',Roboto,'Helvetica Neue',Arial,sans-serif" font-size="26" fill="#8A93A3">from 292</text>
</svg>