<svg xmlns="http://www.w3.org/2000/svg" width="900" height="398" viewBox="0 0 900 398" role="img"
  aria-label="Star growth across Mahdi Mortazavi's open-source repositories">
  <title>Cumulative GitHub stars — 327 total, 33 in the last 30 days</title>
  
  <defs>
    <linearGradient id="bg" x1="0" y1="0" x2="1" y2="1">
      <stop offset="0%" stop-color="#0D1117"/>
      <stop offset="55%" stop-color="#0F1420"/>
      <stop offset="100%" stop-color="#161B22"/>
    </linearGradient>
    <radialGradient id="aura1" cx="50%" cy="50%" r="50%">
      <stop offset="0%" stop-color="#FF9F0A" stop-opacity=".55"/>
      <stop offset="100%" stop-color="#FF9F0A" stop-opacity="0"/>
    </radialGradient>
    <radialGradient id="aura2" cx="50%" cy="50%" r="50%">
      <stop offset="0%" stop-color="#FF375F" stop-opacity=".38"/>
      <stop offset="100%" stop-color="#FF375F" stop-opacity="0"/>
    </radialGradient>
    <linearGradient id="glass" x1="0" y1="0" x2="0.6" y2="1">
      <stop offset="0%" stop-color="#FFFFFF" stop-opacity=".13"/>
      <stop offset="100%" stop-color="#FFFFFF" stop-opacity=".045"/>
    </linearGradient>
    <linearGradient id="mark" x1="0" y1="0" x2="1" y2="1">
      <stop offset="0%" stop-color="#FF9F0A"/>
      <stop offset="100%" stop-color="#FF375F"/>
    </linearGradient>
    <linearGradient id="hair" x1="0" y1="0" x2="1" y2="0">
      <stop offset="0%" stop-color="#FF9F0A" stop-opacity="0"/>
      <stop offset="50%" stop-color="#FF9F0A"/>
      <stop offset="100%" stop-color="#FF375F" stop-opacity="0"/>
    </linearGradient>
    <filter id="soft" x="-60%" y="-60%" width="220%" height="220%">
      <feGaussianBlur stdDeviation="26"/>
    </filter>
    <filter id="coreglow" x="-200%" y="-200%" width="500%" height="500%">
      <feGaussianBlur stdDeviation="18"/>
    </filter>
    <pattern id="grid" width="26" height="26" patternUnits="userSpaceOnUse">
      <circle cx="1.2" cy="1.2" r="1.2" fill="#FFFFFF" fill-opacity=".05"/>
    </pattern>
  </defs>
  <linearGradient id="gfill" x1="0" y1="0" x2="0" y2="1">
    <stop offset="0%" stop-color="#FF9F0A" stop-opacity=".55"/>
    <stop offset="100%" stop-color="#FF9F0A" stop-opacity="0"/>
  </linearGradient>
  
  <rect width="900" height="398" rx="22" fill="url(#bg)"/>
  <g filter="url(#soft)" opacity=".85">
    <ellipse cx="840" cy="40" rx="216" ry="199" fill="url(#aura1)"/>
    <ellipse cx="60" cy="418" rx="234" ry="199" fill="url(#aura2)"/>
  </g>
  <rect width="900" height="398" rx="22" fill="url(#grid)"/>
  <rect x="0" y="0" width="900" height="3" fill="url(#hair)"/>
  
  <text x="52" y="62" font-family="system-ui,-apple-system,'Segoe UI',Roboto,'Helvetica Neue',Arial,sans-serif" font-size="31" font-weight="700" letter-spacing="2.5" fill="#FF9F0A">GROWTH · رشد</text>
  <text x="52" y="162" font-family="system-ui,-apple-system,'Segoe UI',Roboto,'Helvetica Neue',Arial,sans-serif" font-size="86" font-weight="800" letter-spacing="-2" fill="#F5F5F7">327<tspan dx="18" font-size="32" font-weight="600" letter-spacing="0" fill="#A1A1A6">total stars</tspan></text>
  <text x="52" y="203" font-family="system-ui,-apple-system,'Segoe UI',Roboto,'Helvetica Neue',Arial,sans-serif" font-size="27" font-weight="500" fill="#8A93A3"><tspan fill="#30D158" font-weight="700">▲ +33</tspan> in the last 30 days</text>
  <line x1="52" y1="328.0" x2="848" y2="328.0" stroke="#FFFFFF" stroke-opacity=".07"/><line x1="52" y1="277.0" x2="848" y2="277.0" stroke="#FFFFFF" stroke-opacity=".07"/><line x1="52" y1="226.0" x2="848" y2="226.0" stroke="#FFFFFF" stroke-opacity=".07"/>
  <path d="M52.0,307.6L63.1,307.6L74.1,307.6L85.2,307.6L96.2,300.2L107.3,300.2L118.3,300.2L129.4,290.3L140.4,290.3L151.5,290.3L162.6,292.8L173.6,292.8L184.7,292.8L195.7,290.3L206.8,290.3L217.8,290.3L228.9,285.3L239.9,285.3L251.0,285.3L262.1,285.3L273.1,285.3L284.2,285.3L295.2,285.3L306.3,285.3L317.3,285.3L328.4,277.9L339.4,277.9L350.5,277.9L361.6,268.0L372.6,268.0L383.7,268.0L394.7,268.0L405.8,265.6L416.8,265.6L427.9,265.6L438.9,260.6L450.0,260.6L461.1,260.6L472.1,253.2L483.2,253.2L494.2,253.2L505.3,250.7L516.3,250.7L527.4,250.7L538.4,248.3L549.5,248.3L560.6,248.3L571.6,243.3L582.7,243.3L593.7,243.3L604.8,243.3L615.8,243.3L626.9,243.3L637.9,243.3L649.0,243.3L660.1,243.3L671.1,243.3L682.2,243.3L693.2,243.3L704.3,240.8L715.3,240.8L726.4,240.8L737.4,240.8L748.5,238.4L759.6,238.4L770.6,238.4L781.7,238.4L792.7,238.4L803.8,238.4L814.8,228.5L825.9,228.5L836.9,228.5L848.0,226.0L848.0,328L52,328Z" fill="url(#gfill)"/>
  <path d="M52.0,307.6L63.1,307.6L74.1,307.6L85.2,307.6L96.2,300.2L107.3,300.2L118.3,300.2L129.4,290.3L140.4,290.3L151.5,290.3L162.6,292.8L173.6,292.8L184.7,292.8L195.7,290.3L206.8,290.3L217.8,290.3L228.9,285.3L239.9,285.3L251.0,285.3L262.1,285.3L273.1,285.3L284.2,285.3L295.2,285.3L306.3,285.3L317.3,285.3L328.4,277.9L339.4,277.9L350.5,277.9L361.6,268.0L372.6,268.0L383.7,268.0L394.7,268.0L405.8,265.6L416.8,265.6L427.9,265.6L438.9,260.6L450.0,260.6L461.1,260.6L472.1,253.2L483.2,253.2L494.2,253.2L505.3,250.7L516.3,250.7L527.4,250.7L538.4,248.3L549.5,248.3L560.6,248.3L571.6,243.3L582.7,243.3L593.7,243.3L604.8,243.3L615.8,243.3L626.9,243.3L637.9,243.3L649.0,243.3L660.1,243.3L671.1,243.3L682.2,243.3L693.2,243.3L704.3,240.8L715.3,240.8L726.4,240.8L737.4,240.8L748.5,238.4L759.6,238.4L770.6,238.4L781.7,238.4L792.7,238.4L803.8,238.4L814.8,228.5L825.9,228.5L836.9,228.5L848.0,226.0" fill="none" stroke="#FF9F0A" stroke-width="3.8" stroke-linejoin="round" stroke-linecap="round"
    stroke-dasharray="4000" stroke-dashoffset="4000">
    <animate attributeName="stroke-dashoffset" from="4000" to="0" dur="2.2s" fill="freeze" calcMode="spline" keySplines="0.2 0.8 0.2 1"/>
  </path>
  <circle cx="848.0" cy="226.0" r="8" fill="#FFFFFF"/>
  <circle cx="848.0" cy="226.0" r="8" fill="none" stroke="#FFFFFF" stroke-opacity=".7">
    <animate attributeName="r" values="6;17;6" dur="2.6s" repeatCount="indefinite"/>
    <animate attributeName="stroke-opacity" values=".7;0;.7" dur="2.6s" repeatCount="indefinite"/>
  </circle>
  <text x="52.0" y="381" text-anchor="start"
      font-family="system-ui,-apple-system,'Segoe UI',Roboto,'Helvetica Neue',Arial,sans-serif" font-size="27" fill="#8A93A3">2 Sept</text><text x="450.0" y="381" text-anchor="middle"
      font-family="system-ui,-apple-system,'Segoe UI',Roboto,'Helvetica Neue',Arial,sans-serif" font-size="27" fill="#8A93A3">13 Sept</text><text x="848.0" y="381" text-anchor="end"
      font-family="system-ui,-apple-system,'Segoe UI',Roboto,'Helvetica Neue',Arial,sans-serif" font-size="27" fill="#8A93A3">25 Sept</text><text x="52" y="353.0" font-family="system-ui,-apple-system,'Segoe UI',Roboto,'Helvetica Neue',Arial,sans-serif" font-size="27" fill="#8A93A3">from 286</text>
</svg>