<svg xmlns="http://www.w3.org/2000/svg" width="900" height="398" viewBox="0 0 900 398" role="img"
  aria-label="Star growth across Mahdi Mortazavi's open-source repositories">
  <title>Cumulative GitHub stars — 307 total, 13 in the last 30 days</title>
  
  <defs>
    <linearGradient id="bg" x1="0" y1="0" x2="1" y2="1">
      <stop offset="0%" stop-color="#0D1117"/>
      <stop offset="55%" stop-color="#0F1420"/>
      <stop offset="100%" stop-color="#161B22"/>
    </linearGradient>
    <radialGradient id="aura1" cx="50%" cy="50%" r="50%">
      <stop offset="0%" stop-color="#FF9F0A" stop-opacity=".55"/>
      <stop offset="100%" stop-color="#FF9F0A" stop-opacity="0"/>
    </radialGradient>
    <radialGradient id="aura2" cx="50%" cy="50%" r="50%">
      <stop offset="0%" stop-color="#FF375F" stop-opacity=".38"/>
      <stop offset="100%" stop-color="#FF375F" stop-opacity="0"/>
    </radialGradient>
    <linearGradient id="glass" x1="0" y1="0" x2="0.6" y2="1">
      <stop offset="0%" stop-color="#FFFFFF" stop-opacity=".13"/>
      <stop offset="100%" stop-color="#FFFFFF" stop-opacity=".045"/>
    </linearGradient>
    <linearGradient id="mark" x1="0" y1="0" x2="1" y2="1">
      <stop offset="0%" stop-color="#FF9F0A"/>
      <stop offset="100%" stop-color="#FF375F"/>
    </linearGradient>
    <linearGradient id="hair" x1="0" y1="0" x2="1" y2="0">
      <stop offset="0%" stop-color="#FF9F0A" stop-opacity="0"/>
      <stop offset="50%" stop-color="#FF9F0A"/>
      <stop offset="100%" stop-color="#FF375F" stop-opacity="0"/>
    </linearGradient>
    <filter id="soft" x="-60%" y="-60%" width="220%" height="220%">
      <feGaussianBlur stdDeviation="26"/>
    </filter>
    <filter id="coreglow" x="-200%" y="-200%" width="500%" height="500%">
      <feGaussianBlur stdDeviation="18"/>
    </filter>
    <pattern id="grid" width="26" height="26" patternUnits="userSpaceOnUse">
      <circle cx="1.2" cy="1.2" r="1.2" fill="#FFFFFF" fill-opacity=".05"/>
    </pattern>
  </defs>
  <linearGradient id="gfill" x1="0" y1="0" x2="0" y2="1">
    <stop offset="0%" stop-color="#FF9F0A" stop-opacity=".55"/>
    <stop offset="100%" stop-color="#FF9F0A" stop-opacity="0"/>
  </linearGradient>
  
  <rect width="900" height="398" rx="22" fill="url(#bg)"/>
  <g filter="url(#soft)" opacity=".85">
    <ellipse cx="840" cy="40" rx="216" ry="199" fill="url(#aura1)"/>
    <ellipse cx="60" cy="418" rx="234" ry="199" fill="url(#aura2)"/>
  </g>
  <rect width="900" height="398" rx="22" fill="url(#grid)"/>
  <rect x="0" y="0" width="900" height="3" fill="url(#hair)"/>
  
  <text x="52" y="62" font-family="system-ui,-apple-system,'Segoe UI',Roboto,'Helvetica Neue',Arial,sans-serif" font-size="31" font-weight="700" letter-spacing="2.5" fill="#FF9F0A">GROWTH · رشد</text>
  <text x="52" y="162" font-family="system-ui,-apple-system,'Segoe UI',Roboto,'Helvetica Neue',Arial,sans-serif" font-size="86" font-weight="800" letter-spacing="-2" fill="#F5F5F7">307<tspan dx="18" font-size="32" font-weight="600" letter-spacing="0" fill="#A1A1A6">total stars</tspan></text>
  <text x="52" y="203" font-family="system-ui,-apple-system,'Segoe UI',Roboto,'Helvetica Neue',Arial,sans-serif" font-size="27" font-weight="500" fill="#8A93A3"><tspan fill="#30D158" font-weight="700">▲ +13</tspan> in the last 30 days</text>
  <line x1="52" y1="328.0" x2="848" y2="328.0" stroke="#FFFFFF" stroke-opacity=".07"/><line x1="52" y1="277.0" x2="848" y2="277.0" stroke="#FFFFFF" stroke-opacity=".07"/><line x1="52" y1="226.0" x2="848" y2="226.0" stroke="#FFFFFF" stroke-opacity=".07"/>
  <path d="M52.0,307.6L63.1,307.6L74.1,307.6L85.2,307.6L96.2,307.6L107.3,307.6L118.3,307.6L129.4,307.6L140.4,288.8L151.5,288.8L162.6,288.8L173.6,288.8L184.7,288.8L195.7,288.8L206.8,288.8L217.8,288.8L228.9,263.7L239.9,263.7L251.0,263.7L262.1,263.7L273.1,263.7L284.2,263.7L295.2,263.7L306.3,263.7L317.3,269.9L328.4,269.9L339.4,269.9L350.5,269.9L361.6,269.9L372.6,269.9L383.7,269.9L394.7,269.9L405.8,263.7L416.8,263.7L427.9,263.7L438.9,263.7L450.0,263.7L461.1,263.7L472.1,263.7L483.2,263.7L494.2,251.1L505.3,251.1L516.3,251.1L527.4,251.1L538.4,251.1L549.5,251.1L560.6,251.1L571.6,251.1L582.7,251.1L593.7,251.1L604.8,251.1L615.8,251.1L626.9,251.1L637.9,251.1L649.0,251.1L660.1,251.1L671.1,251.1L682.2,251.1L693.2,251.1L704.3,251.1L715.3,251.1L726.4,251.1L737.4,251.1L748.5,232.3L759.6,232.3L770.6,232.3L781.7,232.3L792.7,232.3L803.8,232.3L814.8,232.3L825.9,232.3L836.9,226.0L848.0,226.0L848.0,328L52,328Z" fill="url(#gfill)"/>
  <path d="M52.0,307.6L63.1,307.6L74.1,307.6L85.2,307.6L96.2,307.6L107.3,307.6L118.3,307.6L129.4,307.6L140.4,288.8L151.5,288.8L162.6,288.8L173.6,288.8L184.7,288.8L195.7,288.8L206.8,288.8L217.8,288.8L228.9,263.7L239.9,263.7L251.0,263.7L262.1,263.7L273.1,263.7L284.2,263.7L295.2,263.7L306.3,263.7L317.3,269.9L328.4,269.9L339.4,269.9L350.5,269.9L361.6,269.9L372.6,269.9L383.7,269.9L394.7,269.9L405.8,263.7L416.8,263.7L427.9,263.7L438.9,263.7L450.0,263.7L461.1,263.7L472.1,263.7L483.2,263.7L494.2,251.1L505.3,251.1L516.3,251.1L527.4,251.1L538.4,251.1L549.5,251.1L560.6,251.1L571.6,251.1L582.7,251.1L593.7,251.1L604.8,251.1L615.8,251.1L626.9,251.1L637.9,251.1L649.0,251.1L660.1,251.1L671.1,251.1L682.2,251.1L693.2,251.1L704.3,251.1L715.3,251.1L726.4,251.1L737.4,251.1L748.5,232.3L759.6,232.3L770.6,232.3L781.7,232.3L792.7,232.3L803.8,232.3L814.8,232.3L825.9,232.3L836.9,226.0L848.0,226.0" fill="none" stroke="#FF9F0A" stroke-width="3.8" stroke-linejoin="round" stroke-linecap="round"
    stroke-dasharray="4000" stroke-dashoffset="4000">
    <animate attributeName="stroke-dashoffset" from="4000" to="0" dur="2.2s" fill="freeze" calcMode="spline" keySplines="0.2 0.8 0.2 1"/>
  </path>
  <circle cx="848.0" cy="226.0" r="8" fill="#FFFFFF"/>
  <circle cx="848.0" cy="226.0" r="8" fill="none" stroke="#FFFFFF" stroke-opacity=".7">
    <animate attributeName="r" values="6;17;6" dur="2.6s" repeatCount="indefinite"/>
    <animate attributeName="stroke-opacity" values=".7;0;.7" dur="2.6s" repeatCount="indefinite"/>
  </circle>
  <text x="52.0" y="381" text-anchor="start"
      font-family="system-ui,-apple-system,'Segoe UI',Roboto,'Helvetica Neue',Arial,sans-serif" font-size="27" fill="#8A93A3">2 Sept</text><text x="450.0" y="381" text-anchor="middle"
      font-family="system-ui,-apple-system,'Segoe UI',Roboto,'Helvetica Neue',Arial,sans-serif" font-size="27" fill="#8A93A3">6 Sept</text><text x="848.0" y="381" text-anchor="end"
      font-family="system-ui,-apple-system,'Segoe UI',Roboto,'Helvetica Neue',Arial,sans-serif" font-size="27" fill="#8A93A3">11 Sept</text><text x="52" y="353.0" font-family="system-ui,-apple-system,'Segoe UI',Roboto,'Helvetica Neue',Arial,sans-serif" font-size="27" fill="#8A93A3">from 291</text>
</svg>