<svg xmlns="http://www.w3.org/2000/svg" width="1600" height="372" viewBox="0 0 1600 372" role="img"
  aria-label="Star growth across Mahdi Mortazavi's open-source repositories">
  <title>Cumulative GitHub stars — 311 total, 17 in the last 30 days</title>
  
  <defs>
    <linearGradient id="bg" x1="0" y1="0" x2="1" y2="1">
      <stop offset="0%" stop-color="#0D1117"/>
      <stop offset="55%" stop-color="#0F1420"/>
      <stop offset="100%" stop-color="#161B22"/>
    </linearGradient>
    <radialGradient id="aura1" cx="50%" cy="50%" r="50%">
      <stop offset="0%" stop-color="#0A84FF" stop-opacity=".55"/>
      <stop offset="100%" stop-color="#0A84FF" stop-opacity="0"/>
    </radialGradient>
    <radialGradient id="aura2" cx="50%" cy="50%" r="50%">
      <stop offset="0%" stop-color="#30D1D0" stop-opacity=".38"/>
      <stop offset="100%" stop-color="#30D1D0" stop-opacity="0"/>
    </radialGradient>
    <linearGradient id="glass" x1="0" y1="0" x2="0.6" y2="1">
      <stop offset="0%" stop-color="#FFFFFF" stop-opacity=".13"/>
      <stop offset="100%" stop-color="#FFFFFF" stop-opacity=".045"/>
    </linearGradient>
    <linearGradient id="mark" x1="0" y1="0" x2="1" y2="1">
      <stop offset="0%" stop-color="#0A84FF"/>
      <stop offset="100%" stop-color="#30D1D0"/>
    </linearGradient>
    <linearGradient id="hair" x1="0" y1="0" x2="1" y2="0">
      <stop offset="0%" stop-color="#0A84FF" stop-opacity="0"/>
      <stop offset="50%" stop-color="#0A84FF"/>
      <stop offset="100%" stop-color="#30D1D0" stop-opacity="0"/>
    </linearGradient>
    <filter id="soft" x="-60%" y="-60%" width="220%" height="220%">
      <feGaussianBlur stdDeviation="26"/>
    </filter>
    <filter id="coreglow" x="-200%" y="-200%" width="500%" height="500%">
      <feGaussianBlur stdDeviation="18"/>
    </filter>
    <pattern id="grid" width="26" height="26" patternUnits="userSpaceOnUse">
      <circle cx="1.2" cy="1.2" r="1.2" fill="#FFFFFF" fill-opacity=".05"/>
    </pattern>
  </defs>
  <linearGradient id="gfill" x1="0" y1="0" x2="0" y2="1">
    <stop offset="0%" stop-color="#0A84FF" stop-opacity=".55"/>
    <stop offset="100%" stop-color="#0A84FF" stop-opacity="0"/>
  </linearGradient>
  
  <rect width="1600" height="372" rx="22" fill="url(#bg)"/>
  <g filter="url(#soft)" opacity=".85">
    <ellipse cx="1540" cy="40" rx="384" ry="186" fill="url(#aura1)"/>
    <ellipse cx="60" cy="392" rx="416" ry="186" fill="url(#aura2)"/>
  </g>
  <rect width="1600" height="372" rx="22" fill="url(#grid)"/>
  <rect x="0" y="0" width="1600" height="3" fill="url(#hair)"/>
  
  <text x="64" y="62" font-family="system-ui,-apple-system,'Segoe UI',Roboto,'Helvetica Neue',Arial,sans-serif" font-size="30" font-weight="700" letter-spacing="2.5" fill="#0A84FF">GROWTH · رشد</text>
  <text x="64" y="162" font-family="system-ui,-apple-system,'Segoe UI',Roboto,'Helvetica Neue',Arial,sans-serif" font-size="104" font-weight="800" letter-spacing="-2" fill="#F5F5F7">311<tspan dx="18" font-size="34" font-weight="600" letter-spacing="0" fill="#A1A1A6">total stars</tspan></text>
  <text x="64" y="203" font-family="system-ui,-apple-system,'Segoe UI',Roboto,'Helvetica Neue',Arial,sans-serif" font-size="26" font-weight="500" fill="#8A93A3"><tspan fill="#30D158" font-weight="700">▲ +17</tspan> in the last 30 days</text>
  <line x1="64" y1="302.0" x2="1536" y2="302.0" stroke="#FFFFFF" stroke-opacity=".07"/><line x1="64" y1="257.0" x2="1536" y2="257.0" stroke="#FFFFFF" stroke-opacity=".07"/><line x1="64" y1="212.0" x2="1536" y2="212.0" stroke="#FFFFFF" stroke-opacity=".07"/>
  <path d="M64.0,284.0L84.4,284.0L104.9,284.0L125.3,284.0L145.8,284.0L166.2,284.0L186.7,284.0L207.1,271.3L227.6,271.3L248.0,271.3L268.4,271.3L288.9,271.3L309.3,271.3L329.8,271.3L350.2,254.4L370.7,254.4L391.1,254.4L411.6,254.4L432.0,254.4L452.4,254.4L472.9,254.4L493.3,258.6L513.8,258.6L534.2,258.6L554.7,258.6L575.1,258.6L595.6,258.6L616.0,258.6L636.4,254.4L656.9,254.4L677.3,254.4L697.8,254.4L718.2,254.4L738.7,254.4L759.1,254.4L779.6,245.9L800.0,245.9L820.4,245.9L840.9,245.9L861.3,245.9L881.8,245.9L902.2,245.9L922.7,245.9L943.1,245.9L963.6,245.9L984.0,245.9L1004.4,245.9L1024.9,245.9L1045.3,245.9L1065.8,245.9L1086.2,245.9L1106.7,245.9L1127.1,245.9L1147.6,245.9L1168.0,245.9L1188.4,245.9L1208.9,233.2L1229.3,233.2L1249.8,233.2L1270.2,233.2L1290.7,233.2L1311.1,233.2L1331.6,233.2L1352.0,216.2L1372.4,216.2L1392.9,216.2L1413.3,216.2L1433.8,216.2L1454.2,216.2L1474.7,212.0L1495.1,212.0L1515.6,212.0L1536.0,212.0L1536.0,302L64,302Z" fill="url(#gfill)"/>
  <path d="M64.0,284.0L84.4,284.0L104.9,284.0L125.3,284.0L145.8,284.0L166.2,284.0L186.7,284.0L207.1,271.3L227.6,271.3L248.0,271.3L268.4,271.3L288.9,271.3L309.3,271.3L329.8,271.3L350.2,254.4L370.7,254.4L391.1,254.4L411.6,254.4L432.0,254.4L452.4,254.4L472.9,254.4L493.3,258.6L513.8,258.6L534.2,258.6L554.7,258.6L575.1,258.6L595.6,258.6L616.0,258.6L636.4,254.4L656.9,254.4L677.3,254.4L697.8,254.4L718.2,254.4L738.7,254.4L759.1,254.4L779.6,245.9L800.0,245.9L820.4,245.9L840.9,245.9L861.3,245.9L881.8,245.9L902.2,245.9L922.7,245.9L943.1,245.9L963.6,245.9L984.0,245.9L1004.4,245.9L1024.9,245.9L1045.3,245.9L1065.8,245.9L1086.2,245.9L1106.7,245.9L1127.1,245.9L1147.6,245.9L1168.0,245.9L1188.4,245.9L1208.9,233.2L1229.3,233.2L1249.8,233.2L1270.2,233.2L1290.7,233.2L1311.1,233.2L1331.6,233.2L1352.0,216.2L1372.4,216.2L1392.9,216.2L1413.3,216.2L1433.8,216.2L1454.2,216.2L1474.7,212.0L1495.1,212.0L1515.6,212.0L1536.0,212.0" fill="none" stroke="#0A84FF" stroke-width="3.8" stroke-linejoin="round" stroke-linecap="round"
    stroke-dasharray="4000" stroke-dashoffset="4000">
    <animate attributeName="stroke-dashoffset" from="4000" to="0" dur="2.2s" fill="freeze" calcMode="spline" keySplines="0.2 0.8 0.2 1"/>
  </path>
  <circle cx="1536.0" cy="212.0" r="8" fill="#FFFFFF"/>
  <circle cx="1536.0" cy="212.0" r="8" fill="none" stroke="#FFFFFF" stroke-opacity=".7">
    <animate attributeName="r" values="6;17;6" dur="2.6s" repeatCount="indefinite"/>
    <animate attributeName="stroke-opacity" values=".7;0;.7" dur="2.6s" repeatCount="indefinite"/>
  </circle>
  <text x="64.0" y="355" text-anchor="start"
      font-family="system-ui,-apple-system,'Segoe UI',Roboto,'Helvetica Neue',Arial,sans-serif" font-size="26" fill="#8A93A3">2 Sept</text><text x="800.0" y="355" text-anchor="middle"
      font-family="system-ui,-apple-system,'Segoe UI',Roboto,'Helvetica Neue',Arial,sans-serif" font-size="26" fill="#8A93A3">7 Sept</text><text x="1536.0" y="355" text-anchor="end"
      font-family="system-ui,-apple-system,'Segoe UI',Roboto,'Helvetica Neue',Arial,sans-serif" font-size="26" fill="#8A93A3">12 Sept</text><text x="64" y="327.0" font-family="system-ui,-apple-system,'Segoe UI',Roboto,'Helvetica Neue',Arial,sans-serif" font-size="26" fill="#8A93A3">from 290</text>
</svg>