<svg xmlns="http://www.w3.org/2000/svg" width="900" height="333" viewBox="0 0 900 333" role="img"
  aria-label="Mahdi Mortazavi made 829 contributions in the last year">
  <title>829 contributions in the last year</title>
  
  <defs>
    <linearGradient id="bg" x1="0" y1="0" x2="1" y2="1">
      <stop offset="0%" stop-color="#0D1117"/>
      <stop offset="55%" stop-color="#0F1420"/>
      <stop offset="100%" stop-color="#161B22"/>
    </linearGradient>
    <radialGradient id="aura1" cx="50%" cy="50%" r="50%">
      <stop offset="0%" stop-color="#5E5CE6" stop-opacity=".55"/>
      <stop offset="100%" stop-color="#5E5CE6" stop-opacity="0"/>
    </radialGradient>
    <radialGradient id="aura2" cx="50%" cy="50%" r="50%">
      <stop offset="0%" stop-color="#FF375F" stop-opacity=".38"/>
      <stop offset="100%" stop-color="#FF375F" stop-opacity="0"/>
    </radialGradient>
    <linearGradient id="glass" x1="0" y1="0" x2="0.6" y2="1">
      <stop offset="0%" stop-color="#FFFFFF" stop-opacity=".13"/>
      <stop offset="100%" stop-color="#FFFFFF" stop-opacity=".045"/>
    </linearGradient>
    <linearGradient id="mark" x1="0" y1="0" x2="1" y2="1">
      <stop offset="0%" stop-color="#5E5CE6"/>
      <stop offset="100%" stop-color="#FF375F"/>
    </linearGradient>
    <linearGradient id="hair" x1="0" y1="0" x2="1" y2="0">
      <stop offset="0%" stop-color="#5E5CE6" stop-opacity="0"/>
      <stop offset="50%" stop-color="#5E5CE6"/>
      <stop offset="100%" stop-color="#FF375F" stop-opacity="0"/>
    </linearGradient>
    <filter id="soft" x="-60%" y="-60%" width="220%" height="220%">
      <feGaussianBlur stdDeviation="26"/>
    </filter>
    <filter id="coreglow" x="-200%" y="-200%" width="500%" height="500%">
      <feGaussianBlur stdDeviation="18"/>
    </filter>
    <pattern id="grid" width="26" height="26" patternUnits="userSpaceOnUse">
      <circle cx="1.2" cy="1.2" r="1.2" fill="#FFFFFF" fill-opacity=".05"/>
    </pattern>
  </defs>
  <rect width="900" height="333" rx="22" fill="url(#bg)"/>
  <g filter="url(#soft)" opacity=".85">
    <ellipse cx="840" cy="40" rx="216" ry="167" fill="url(#aura1)"/>
    <ellipse cx="60" cy="353" rx="234" ry="167" fill="url(#aura2)"/>
  </g>
  <rect width="900" height="333" rx="22" fill="url(#grid)"/>
  <rect x="0" y="0" width="900" height="3" fill="url(#hair)"/>
  <text x="52" y="48" font-family="system-ui,-apple-system,'Segoe UI',Roboto,'Helvetica Neue',Arial,sans-serif" font-size="31" font-weight="700" letter-spacing="2" fill="#5E5CE6">CONTRIBUTIONS · فعالیت</text>
  <text x="52" y="108" font-family="system-ui,-apple-system,'Segoe UI',Roboto,'Helvetica Neue',Arial,sans-serif" font-size="32" font-weight="700" fill="#F5F5F7">829<tspan dx="9" font-size="30" font-weight="500" fill="#8A93A3">in the last year</tspan></text>
  <text x="848" y="108" text-anchor="end" font-family="system-ui,-apple-system,'Segoe UI',Roboto,'Helvetica Neue',Arial,sans-serif" font-size="30" font-weight="700" fill="#5E5CE6">🔥 2-day streak</text>
  <text x="52.0" y="146" font-family="system-ui,-apple-system,'Segoe UI',Roboto,'Helvetica Neue',Arial,sans-serif" font-size="24" font-weight="600" fill="#8A93A3">Sep</text><text x="112.1" y="146" font-family="system-ui,-apple-system,'Segoe UI',Roboto,'Helvetica Neue',Arial,sans-serif" font-size="24" font-weight="600" fill="#8A93A3">Oct</text><text x="172.2" y="146" font-family="system-ui,-apple-system,'Segoe UI',Roboto,'Helvetica Neue',Arial,sans-serif" font-size="24" font-weight="600" fill="#8A93A3">Nov</text><text x="247.2" y="146" font-family="system-ui,-apple-system,'Segoe UI',Roboto,'Helvetica Neue',Arial,sans-serif" font-size="24" font-weight="600" fill="#8A93A3">Dec</text><text x="307.3" y="146" font-family="system-ui,-apple-system,'Segoe UI',Roboto,'Helvetica Neue',Arial,sans-serif" font-size="24" font-weight="600" fill="#8A93A3">Jan</text><text x="367.4" y="146" font-family="system-ui,-apple-system,'Segoe UI',Roboto,'Helvetica Neue',Arial,sans-serif" font-size="24" font-weight="600" fill="#8A93A3">Feb</text><text x="427.5" y="146" font-family="system-ui,-apple-system,'Segoe UI',Roboto,'Helvetica Neue',Arial,sans-serif" font-size="24" font-weight="600" fill="#8A93A3">Mar</text><text x="502.6" y="146" font-family="system-ui,-apple-system,'Segoe UI',Roboto,'Helvetica Neue',Arial,sans-serif" font-size="24" font-weight="600" fill="#8A93A3">Apr</text><text x="562.6" y="146" font-family="system-ui,-apple-system,'Segoe UI',Roboto,'Helvetica Neue',Arial,sans-serif" font-size="24" font-weight="600" fill="#8A93A3">May</text><text x="637.7" y="146" font-family="system-ui,-apple-system,'Segoe UI',Roboto,'Helvetica Neue',Arial,sans-serif" font-size="24" font-weight="600" fill="#8A93A3">Jun</text><text x="697.8" y="146" font-family="system-ui,-apple-system,'Segoe UI',Roboto,'Helvetica Neue',Arial,sans-serif" font-size="24" font-weight="600" fill="#8A93A3">Jul</text><text x="757.9" y="146" font-family="system-ui,-apple-system,'Segoe UI',Roboto,'Helvetica Neue',Arial,sans-serif" font-size="24" font-weight="600" fill="#8A93A3">Aug</text><rect x="52.0" y="162.0" width="12.2" height="12.2" rx="2.8" fill="#161B22"><title>2025-09-07: 0</title></rect><rect x="52.0" y="177.0" width="12.2" height="12.2" rx="2.8" fill="#161B22"><title>2025-09-08: 0</title></rect><rect x="52.0" y="192.0" width="12.2" height="12.2" rx="2.8" fill="#161B22"><title>2025-09-09: 0</title></rect><rect x="52.0" y="207.1" width="12.2" height="12.2" rx="2.8" fill="#161B22"><title>2025-09-10: 0</title></rect><rect x="52.0" y="222.1" width="12.2" height="12.2" rx="2.8" fill="#161B22"><title>2025-09-11: 0</title></rect><rect x="52.0" y="237.1" width="12.2" height="12.2" rx="2.8" fill="#161B22"><title>2025-09-12: 0</title></rect><rect x="52.0" y="252.1" width="12.2" height="12.2" rx="2.8" fill="#161B22"><title>2025-09-13: 0</title></rect><rect x="67.0" y="162.0" width="12.2" height="12.2" rx="2.8" fill="#161B22"><title>2025-09-14: 0</title></rect><rect x="67.0" y="177.0" width="12.2" height="12.2" rx="2.8" fill="#161B22"><title>2025-09-15: 0</title></rect><rect x="67.0" y="192.0" width="12.2" height="12.2" rx="2.8" fill="#161B22"><title>2025-09-16: 0</title></rect><rect x="67.0" y="207.1" width="12.2" height="12.2" rx="2.8" fill="#161B22"><title>2025-09-17: 0</title></rect><rect x="67.0" y="222.1" width="12.2" height="12.2" rx="2.8" fill="#161B22"><title>2025-09-18: 0</title></rect><rect x="67.0" y="237.1" width="12.2" height="12.2" rx="2.8" fill="#161B22"><title>2025-09-19: 0</title></rect><rect x="67.0" y="252.1" width="12.2" height="12.2" rx="2.8" fill="#161B22"><title>2025-09-20: 0</title></rect><rect x="82.0" y="162.0" width="12.2" height="12.2" rx="2.8" fill="#161B22"><title>2025-09-21: 0</title></rect><rect x="82.0" y="177.0" width="12.2" height="12.2" rx="2.8" fill="#161B22"><title>2025-09-22: 0</title></rect><rect x="82.0" y="192.0" width="12.2" height="12.2" rx="2.8" fill="#161B22"><title>2025-09-23: 0</title></rect><rect x="82.0" y="207.1" width="12.2" height="12.2" rx="2.8" fill="#161B22"><title>2025-09-24: 0</title></rect><rect x="82.0" y="222.1" width="12.2" height="12.2" rx="2.8" fill="#161B22"><title>2025-09-25: 0</title></rect><rect x="82.0" y="237.1" width="12.2" height="12.2" rx="2.8" fill="#0E4429"><title>2025-09-26: 1</title></rect><rect x="82.0" y="252.1" width="12.2" height="12.2" rx="2.8" fill="#161B22"><title>2025-09-27: 0</title></rect><rect x="97.1" y="162.0" width="12.2" height="12.2" rx="2.8" fill="#161B22"><title>2025-09-28: 0</title></rect><rect x="97.1" y="177.0" width="12.2" height="12.2" rx="2.8" fill="#161B22"><title>2025-09-29: 0</title></rect><rect x="97.1" y="192.0" width="12.2" height="12.2" rx="2.8" fill="#161B22"><title>2025-09-30: 0</title></rect><rect x="97.1" y="207.1" width="12.2" height="12.2" rx="2.8" fill="#161B22"><title>2025-10-01: 0</title></rect><rect x="97.1" y="222.1" width="12.2" height="12.2" rx="2.8" fill="#161B22"><title>2025-10-02: 0</title></rect><rect x="97.1" y="237.1" width="12.2" height="12.2" rx="2.8" fill="#161B22"><title>2025-10-03: 0</title></rect><rect x="97.1" y="252.1" width="12.2" height="12.2" rx="2.8" fill="#0E4429"><title>2025-10-04: 4</title></rect><rect x="112.1" y="162.0" width="12.2" height="12.2" rx="2.8" fill="#161B22"><title>2025-10-05: 0</title></rect><rect x="112.1" y="177.0" width="12.2" height="12.2" rx="2.8" fill="#161B22"><title>2025-10-06: 0</title></rect><rect x="112.1" y="192.0" width="12.2" height="12.2" rx="2.8" fill="#0E4429"><title>2025-10-07: 4</title></rect><rect x="112.1" y="207.1" width="12.2" height="12.2" rx="2.8" fill="#161B22"><title>2025-10-08: 0</title></rect><rect x="112.1" y="222.1" width="12.2" height="12.2" rx="2.8" fill="#0E4429"><title>2025-10-09: 1</title></rect><rect x="112.1" y="237.1" width="12.2" height="12.2" rx="2.8" fill="#161B22"><title>2025-10-10: 0</title></rect><rect x="112.1" y="252.1" width="12.2" height="12.2" rx="2.8" fill="#161B22"><title>2025-10-11: 0</title></rect><rect x="127.1" y="162.0" width="12.2" height="12.2" rx="2.8" fill="#0E4429"><title>2025-10-12: 1</title></rect><rect x="127.1" y="177.0" width="12.2" height="12.2" rx="2.8" fill="#161B22"><title>2025-10-13: 0</title></rect><rect x="127.1" y="192.0" width="12.2" height="12.2" rx="2.8" fill="#161B22"><title>2025-10-14: 0</title></rect><rect x="127.1" y="207.1" width="12.2" height="12.2" rx="2.8" fill="#161B22"><title>2025-10-15: 0</title></rect><rect x="127.1" y="222.1" width="12.2" height="12.2" rx="2.8" fill="#161B22"><title>2025-10-16: 0</title></rect><rect x="127.1" y="237.1" width="12.2" height="12.2" rx="2.8" fill="#161B22"><title>2025-10-17: 0</title></rect><rect x="127.1" y="252.1" width="12.2" height="12.2" rx="2.8" fill="#161B22"><title>2025-10-18: 0</title></rect><rect x="142.1" y="162.0" width="12.2" height="12.2" rx="2.8" fill="#161B22"><title>2025-10-19: 0</title></rect><rect x="142.1" y="177.0" width="12.2" height="12.2" rx="2.8" fill="#161B22"><title>2025-10-20: 0</title></rect><rect x="142.1" y="192.0" width="12.2" height="12.2" rx="2.8" fill="#0E4429"><title>2025-10-21: 1</title></rect><rect x="142.1" y="207.1" width="12.2" height="12.2" rx="2.8" fill="#161B22"><title>2025-10-22: 0</title></rect><rect x="142.1" y="222.1" width="12.2" height="12.2" rx="2.8" fill="#161B22"><title>2025-10-23: 0</title></rect><rect x="142.1" y="237.1" width="12.2" height="12.2" rx="2.8" fill="#161B22"><title>2025-10-24: 0</title></rect><rect x="142.1" y="252.1" width="12.2" height="12.2" rx="2.8" fill="#161B22"><title>2025-10-25: 0</title></rect><rect x="157.1" y="162.0" width="12.2" height="12.2" rx="2.8" fill="#161B22"><title>2025-10-26: 0</title></rect><rect x="157.1" y="177.0" width="12.2" height="12.2" rx="2.8" fill="#0E4429"><title>2025-10-27: 1</title></rect><rect x="157.1" y="192.0" width="12.2" height="12.2" rx="2.8" fill="#006D32"><title>2025-10-28: 8</title></rect><rect x="157.1" y="207.1" width="12.2" height="12.2" rx="2.8" fill="#0E4429"><title>2025-10-29: 1</title></rect><rect x="157.1" y="222.1" width="12.2" height="12.2" rx="2.8" fill="#161B22"><title>2025-10-30: 0</title></rect><rect x="157.1" y="237.1" width="12.2" height="12.2" rx="2.8" fill="#161B22"><title>2025-10-31: 0</title></rect><rect x="157.1" y="252.1" width="12.2" height="12.2" rx="2.8" fill="#161B22"><title>2025-11-01: 0</title></rect><rect x="172.2" y="162.0" width="12.2" height="12.2" rx="2.8" fill="#161B22"><title>2025-11-02: 0</title></rect><rect x="172.2" y="177.0" width="12.2" height="12.2" rx="2.8" fill="#161B22"><title>2025-11-03: 0</title></rect><rect x="172.2" y="192.0" width="12.2" height="12.2" rx="2.8" fill="#161B22"><title>2025-11-04: 0</title></rect><rect x="172.2" y="207.1" width="12.2" height="12.2" rx="2.8" fill="#161B22"><title>2025-11-05: 0</title></rect><rect x="172.2" y="222.1" width="12.2" height="12.2" rx="2.8" fill="#161B22"><title>2025-11-06: 0</title></rect><rect x="172.2" y="237.1" width="12.2" height="12.2" rx="2.8" fill="#161B22"><title>2025-11-07: 0</title></rect><rect x="172.2" y="252.1" width="12.2" height="12.2" rx="2.8" fill="#161B22"><title>2025-11-08: 0</title></rect><rect x="187.2" y="162.0" width="12.2" height="12.2" rx="2.8" fill="#161B22"><title>2025-11-09: 0</title></rect><rect x="187.2" y="177.0" width="12.2" height="12.2" rx="2.8" fill="#161B22"><title>2025-11-10: 0</title></rect><rect x="187.2" y="192.0" width="12.2" height="12.2" rx="2.8" fill="#161B22"><title>2025-11-11: 0</title></rect><rect x="187.2" y="207.1" width="12.2" height="12.2" rx="2.8" fill="#161B22"><title>2025-11-12: 0</title></rect><rect x="187.2" y="222.1" width="12.2" height="12.2" rx="2.8" fill="#161B22"><title>2025-11-13: 0</title></rect><rect x="187.2" y="237.1" width="12.2" height="12.2" rx="2.8" fill="#161B22"><title>2025-11-14: 0</title></rect><rect x="187.2" y="252.1" width="12.2" height="12.2" rx="2.8" fill="#161B22"><title>2025-11-15: 0</title></rect><rect x="202.2" y="162.0" width="12.2" height="12.2" rx="2.8" fill="#161B22"><title>2025-11-16: 0</title></rect><rect x="202.2" y="177.0" width="12.2" height="12.2" rx="2.8" fill="#161B22"><title>2025-11-17: 0</title></rect><rect x="202.2" y="192.0" width="12.2" height="12.2" rx="2.8" fill="#161B22"><title>2025-11-18: 0</title></rect><rect x="202.2" y="207.1" width="12.2" height="12.2" rx="2.8" fill="#0E4429"><title>2025-11-19: 1</title></rect><rect x="202.2" y="222.1" width="12.2" height="12.2" rx="2.8" fill="#161B22"><title>2025-11-20: 0</title></rect><rect x="202.2" y="237.1" width="12.2" height="12.2" rx="2.8" fill="#161B22"><title>2025-11-21: 0</title></rect><rect x="202.2" y="252.1" width="12.2" height="12.2" rx="2.8" fill="#161B22"><title>2025-11-22: 0</title></rect><rect x="217.2" y="162.0" width="12.2" height="12.2" rx="2.8" fill="#161B22"><title>2025-11-23: 0</title></rect><rect x="217.2" y="177.0" width="12.2" height="12.2" rx="2.8" fill="#161B22"><title>2025-11-24: 0</title></rect><rect x="217.2" y="192.0" width="12.2" height="12.2" rx="2.8" fill="#161B22"><title>2025-11-25: 0</title></rect><rect x="217.2" y="207.1" width="12.2" height="12.2" rx="2.8" fill="#161B22"><title>2025-11-26: 0</title></rect><rect x="217.2" y="222.1" width="12.2" height="12.2" rx="2.8" fill="#161B22"><title>2025-11-27: 0</title></rect><rect x="217.2" y="237.1" width="12.2" height="12.2" rx="2.8" fill="#161B22"><title>2025-11-28: 0</title></rect><rect x="217.2" y="252.1" width="12.2" height="12.2" rx="2.8" fill="#161B22"><title>2025-11-29: 0</title></rect><rect x="232.2" y="162.0" width="12.2" height="12.2" rx="2.8" fill="#161B22"><title>2025-11-30: 0</title></rect><rect x="232.2" y="177.0" width="12.2" height="12.2" rx="2.8" fill="#161B22"><title>2025-12-01: 0</title></rect><rect x="232.2" y="192.0" width="12.2" height="12.2" rx="2.8" fill="#161B22"><title>2025-12-02: 0</title></rect><rect x="232.2" y="207.1" width="12.2" height="12.2" rx="2.8" fill="#006D32"><title>2025-12-03: 10</title></rect><rect x="232.2" y="222.1" width="12.2" height="12.2" rx="2.8" fill="#161B22"><title>2025-12-04: 0</title></rect><rect x="232.2" y="237.1" width="12.2" height="12.2" rx="2.8" fill="#161B22"><title>2025-12-05: 0</title></rect><rect x="232.2" y="252.1" width="12.2" height="12.2" rx="2.8" fill="#161B22"><title>2025-12-06: 0</title></rect><rect x="247.2" y="162.0" width="12.2" height="12.2" rx="2.8" fill="#161B22"><title>2025-12-07: 0</title></rect><rect x="247.2" y="177.0" width="12.2" height="12.2" rx="2.8" fill="#161B22"><title>2025-12-08: 0</title></rect><rect x="247.2" y="192.0" width="12.2" height="12.2" rx="2.8" fill="#161B22"><title>2025-12-09: 0</title></rect><rect x="247.2" y="207.1" width="12.2" height="12.2" rx="2.8" fill="#161B22"><title>2025-12-10: 0</title></rect><rect x="247.2" y="222.1" width="12.2" height="12.2" rx="2.8" fill="#161B22"><title>2025-12-11: 0</title></rect><rect x="247.2" y="237.1" width="12.2" height="12.2" rx="2.8" fill="#161B22"><title>2025-12-12: 0</title></rect><rect x="247.2" y="252.1" width="12.2" height="12.2" rx="2.8" fill="#0E4429"><title>2025-12-13: 4</title></rect><rect x="262.3" y="162.0" width="12.2" height="12.2" rx="2.8" fill="#006D32"><title>2025-12-14: 7</title></rect><rect x="262.3" y="177.0" width="12.2" height="12.2" rx="2.8" fill="#161B22"><title>2025-12-15: 0</title></rect><rect x="262.3" y="192.0" width="12.2" height="12.2" rx="2.8" fill="#161B22"><title>2025-12-16: 0</title></rect><rect x="262.3" y="207.1" width="12.2" height="12.2" rx="2.8" fill="#161B22"><title>2025-12-17: 0</title></rect><rect x="262.3" y="222.1" width="12.2" height="12.2" rx="2.8" fill="#161B22"><title>2025-12-18: 0</title></rect><rect x="262.3" y="237.1" width="12.2" height="12.2" rx="2.8" fill="#161B22"><title>2025-12-19: 0</title></rect><rect x="262.3" y="252.1" width="12.2" height="12.2" rx="2.8" fill="#161B22"><title>2025-12-20: 0</title></rect><rect x="277.3" y="162.0" width="12.2" height="12.2" rx="2.8" fill="#161B22"><title>2025-12-21: 0</title></rect><rect x="277.3" y="177.0" width="12.2" height="12.2" rx="2.8" fill="#161B22"><title>2025-12-22: 0</title></rect><rect x="277.3" y="192.0" width="12.2" height="12.2" rx="2.8" fill="#161B22"><title>2025-12-23: 0</title></rect><rect x="277.3" y="207.1" width="12.2" height="12.2" rx="2.8" fill="#161B22"><title>2025-12-24: 0</title></rect><rect x="277.3" y="222.1" width="12.2" height="12.2" rx="2.8" fill="#161B22"><title>2025-12-25: 0</title></rect><rect x="277.3" y="237.1" width="12.2" height="12.2" rx="2.8" fill="#161B22"><title>2025-12-26: 0</title></rect><rect x="277.3" y="252.1" width="12.2" height="12.2" rx="2.8" fill="#161B22"><title>2025-12-27: 0</title></rect><rect x="292.3" y="162.0" width="12.2" height="12.2" rx="2.8" fill="#161B22"><title>2025-12-28: 0</title></rect><rect x="292.3" y="177.0" width="12.2" height="12.2" rx="2.8" fill="#161B22"><title>2025-12-29: 0</title></rect><rect x="292.3" y="192.0" width="12.2" height="12.2" rx="2.8" fill="#161B22"><title>2025-12-30: 0</title></rect><rect x="292.3" y="207.1" width="12.2" height="12.2" rx="2.8" fill="#006D32"><title>2025-12-31: 8</title></rect><rect x="292.3" y="222.1" width="12.2" height="12.2" rx="2.8" fill="#0E4429"><title>2026-01-01: 5</title></rect><rect x="292.3" y="237.1" width="12.2" height="12.2" rx="2.8" fill="#161B22"><title>2026-01-02: 0</title></rect><rect x="292.3" y="252.1" width="12.2" height="12.2" rx="2.8" fill="#161B22"><title>2026-01-03: 0</title></rect><rect x="307.3" y="162.0" width="12.2" height="12.2" rx="2.8" fill="#161B22"><title>2026-01-04: 0</title></rect><rect x="307.3" y="177.0" width="12.2" height="12.2" rx="2.8" fill="#161B22"><title>2026-01-05: 0</title></rect><rect x="307.3" y="192.0" width="12.2" height="12.2" rx="2.8" fill="#161B22"><title>2026-01-06: 0</title></rect><rect x="307.3" y="207.1" width="12.2" height="12.2" rx="2.8" fill="#161B22"><title>2026-01-07: 0</title></rect><rect x="307.3" y="222.1" width="12.2" height="12.2" rx="2.8" fill="#161B22"><title>2026-01-08: 0</title></rect><rect x="307.3" y="237.1" width="12.2" height="12.2" rx="2.8" fill="#161B22"><title>2026-01-09: 0</title></rect><rect x="307.3" y="252.1" width="12.2" height="12.2" rx="2.8" fill="#161B22"><title>2026-01-10: 0</title></rect><rect x="322.3" y="162.0" width="12.2" height="12.2" rx="2.8" fill="#161B22"><title>2026-01-11: 0</title></rect><rect x="322.3" y="177.0" width="12.2" height="12.2" rx="2.8" fill="#161B22"><title>2026-01-12: 0</title></rect><rect x="322.3" y="192.0" width="12.2" height="12.2" rx="2.8" fill="#161B22"><title>2026-01-13: 0</title></rect><rect x="322.3" y="207.1" width="12.2" height="12.2" rx="2.8" fill="#161B22"><title>2026-01-14: 0</title></rect><rect x="322.3" y="222.1" width="12.2" height="12.2" rx="2.8" fill="#161B22"><title>2026-01-15: 0</title></rect><rect x="322.3" y="237.1" width="12.2" height="12.2" rx="2.8" fill="#161B22"><title>2026-01-16: 0</title></rect><rect x="322.3" y="252.1" width="12.2" height="12.2" rx="2.8" fill="#161B22"><title>2026-01-17: 0</title></rect><rect x="337.4" y="162.0" width="12.2" height="12.2" rx="2.8" fill="#161B22"><title>2026-01-18: 0</title></rect><rect x="337.4" y="177.0" width="12.2" height="12.2" rx="2.8" fill="#161B22"><title>2026-01-19: 0</title></rect><rect x="337.4" y="192.0" width="12.2" height="12.2" rx="2.8" fill="#161B22"><title>2026-01-20: 0</title></rect><rect x="337.4" y="207.1" width="12.2" height="12.2" rx="2.8" fill="#161B22"><title>2026-01-21: 0</title></rect><rect x="337.4" y="222.1" width="12.2" height="12.2" rx="2.8" fill="#161B22"><title>2026-01-22: 0</title></rect><rect x="337.4" y="237.1" width="12.2" height="12.2" rx="2.8" fill="#161B22"><title>2026-01-23: 0</title></rect><rect x="337.4" y="252.1" width="12.2" height="12.2" rx="2.8" fill="#161B22"><title>2026-01-24: 0</title></rect><rect x="352.4" y="162.0" width="12.2" height="12.2" rx="2.8" fill="#161B22"><title>2026-01-25: 0</title></rect><rect x="352.4" y="177.0" width="12.2" height="12.2" rx="2.8" fill="#161B22"><title>2026-01-26: 0</title></rect><rect x="352.4" y="192.0" width="12.2" height="12.2" rx="2.8" fill="#0E4429"><title>2026-01-27: 1</title></rect><rect x="352.4" y="207.1" width="12.2" height="12.2" rx="2.8" fill="#0E4429"><title>2026-01-28: 1</title></rect><rect x="352.4" y="222.1" width="12.2" height="12.2" rx="2.8" fill="#0E4429"><title>2026-01-29: 1</title></rect><rect x="352.4" y="237.1" width="12.2" height="12.2" rx="2.8" fill="#0E4429"><title>2026-01-30: 1</title></rect><rect x="352.4" y="252.1" width="12.2" height="12.2" rx="2.8" fill="#0E4429"><title>2026-01-31: 1</title></rect><rect x="367.4" y="162.0" width="12.2" height="12.2" rx="2.8" fill="#0E4429"><title>2026-02-01: 1</title></rect><rect x="367.4" y="177.0" width="12.2" height="12.2" rx="2.8" fill="#0E4429"><title>2026-02-02: 1</title></rect><rect x="367.4" y="192.0" width="12.2" height="12.2" rx="2.8" fill="#0E4429"><title>2026-02-03: 1</title></rect><rect x="367.4" y="207.1" width="12.2" height="12.2" rx="2.8" fill="#0E4429"><title>2026-02-04: 1</title></rect><rect x="367.4" y="222.1" width="12.2" height="12.2" rx="2.8" fill="#0E4429"><title>2026-02-05: 1</title></rect><rect x="367.4" y="237.1" width="12.2" height="12.2" rx="2.8" fill="#0E4429"><title>2026-02-06: 1</title></rect><rect x="367.4" y="252.1" width="12.2" height="12.2" rx="2.8" fill="#161B22"><title>2026-02-07: 0</title></rect><rect x="382.4" y="162.0" width="12.2" height="12.2" rx="2.8" fill="#161B22"><title>2026-02-08: 0</title></rect><rect x="382.4" y="177.0" width="12.2" height="12.2" rx="2.8" fill="#161B22"><title>2026-02-09: 0</title></rect><rect x="382.4" y="192.0" width="12.2" height="12.2" rx="2.8" fill="#161B22"><title>2026-02-10: 0</title></rect><rect x="382.4" y="207.1" width="12.2" height="12.2" rx="2.8" fill="#161B22"><title>2026-02-11: 0</title></rect><rect x="382.4" y="222.1" width="12.2" height="12.2" rx="2.8" fill="#161B22"><title>2026-02-12: 0</title></rect><rect x="382.4" y="237.1" width="12.2" height="12.2" rx="2.8" fill="#161B22"><title>2026-02-13: 0</title></rect><rect x="382.4" y="252.1" width="12.2" height="12.2" rx="2.8" fill="#161B22"><title>2026-02-14: 0</title></rect><rect x="397.4" y="162.0" width="12.2" height="12.2" rx="2.8" fill="#161B22"><title>2026-02-15: 0</title></rect><rect x="397.4" y="177.0" width="12.2" height="12.2" rx="2.8" fill="#161B22"><title>2026-02-16: 0</title></rect><rect x="397.4" y="192.0" width="12.2" height="12.2" rx="2.8" fill="#161B22"><title>2026-02-17: 0</title></rect><rect x="397.4" y="207.1" width="12.2" height="12.2" rx="2.8" fill="#161B22"><title>2026-02-18: 0</title></rect><rect x="397.4" y="222.1" width="12.2" height="12.2" rx="2.8" fill="#161B22"><title>2026-02-19: 0</title></rect><rect x="397.4" y="237.1" width="12.2" height="12.2" rx="2.8" fill="#161B22"><title>2026-02-20: 0</title></rect><rect x="397.4" y="252.1" width="12.2" height="12.2" rx="2.8" fill="#161B22"><title>2026-02-21: 0</title></rect><rect x="412.5" y="162.0" width="12.2" height="12.2" rx="2.8" fill="#161B22"><title>2026-02-22: 0</title></rect><rect x="412.5" y="177.0" width="12.2" height="12.2" rx="2.8" fill="#161B22"><title>2026-02-23: 0</title></rect><rect x="412.5" y="192.0" width="12.2" height="12.2" rx="2.8" fill="#161B22"><title>2026-02-24: 0</title></rect><rect x="412.5" y="207.1" width="12.2" height="12.2" rx="2.8" fill="#161B22"><title>2026-02-25: 0</title></rect><rect x="412.5" y="222.1" width="12.2" height="12.2" rx="2.8" fill="#161B22"><title>2026-02-26: 0</title></rect><rect x="412.5" y="237.1" width="12.2" height="12.2" rx="2.8" fill="#161B22"><title>2026-02-27: 0</title></rect><rect x="412.5" y="252.1" width="12.2" height="12.2" rx="2.8" fill="#161B22"><title>2026-02-28: 0</title></rect><rect x="427.5" y="162.0" width="12.2" height="12.2" rx="2.8" fill="#161B22"><title>2026-03-01: 0</title></rect><rect x="427.5" y="177.0" width="12.2" height="12.2" rx="2.8" fill="#161B22"><title>2026-03-02: 0</title></rect><rect x="427.5" y="192.0" width="12.2" height="12.2" rx="2.8" fill="#161B22"><title>2026-03-03: 0</title></rect><rect x="427.5" y="207.1" width="12.2" height="12.2" rx="2.8" fill="#161B22"><title>2026-03-04: 0</title></rect><rect x="427.5" y="222.1" width="12.2" height="12.2" rx="2.8" fill="#161B22"><title>2026-03-05: 0</title></rect><rect x="427.5" y="237.1" width="12.2" height="12.2" rx="2.8" fill="#161B22"><title>2026-03-06: 0</title></rect><rect x="427.5" y="252.1" width="12.2" height="12.2" rx="2.8" fill="#161B22"><title>2026-03-07: 0</title></rect><rect x="442.5" y="162.0" width="12.2" height="12.2" rx="2.8" fill="#161B22"><title>2026-03-08: 0</title></rect><rect x="442.5" y="177.0" width="12.2" height="12.2" rx="2.8" fill="#161B22"><title>2026-03-09: 0</title></rect><rect x="442.5" y="192.0" width="12.2" height="12.2" rx="2.8" fill="#161B22"><title>2026-03-10: 0</title></rect><rect x="442.5" y="207.1" width="12.2" height="12.2" rx="2.8" fill="#161B22"><title>2026-03-11: 0</title></rect><rect x="442.5" y="222.1" width="12.2" height="12.2" rx="2.8" fill="#161B22"><title>2026-03-12: 0</title></rect><rect x="442.5" y="237.1" width="12.2" height="12.2" rx="2.8" fill="#161B22"><title>2026-03-13: 0</title></rect><rect x="442.5" y="252.1" width="12.2" height="12.2" rx="2.8" fill="#161B22"><title>2026-03-14: 0</title></rect><rect x="457.5" y="162.0" width="12.2" height="12.2" rx="2.8" fill="#161B22"><title>2026-03-15: 0</title></rect><rect x="457.5" y="177.0" width="12.2" height="12.2" rx="2.8" fill="#161B22"><title>2026-03-16: 0</title></rect><rect x="457.5" y="192.0" width="12.2" height="12.2" rx="2.8" fill="#161B22"><title>2026-03-17: 0</title></rect><rect x="457.5" y="207.1" width="12.2" height="12.2" rx="2.8" fill="#161B22"><title>2026-03-18: 0</title></rect><rect x="457.5" y="222.1" width="12.2" height="12.2" rx="2.8" fill="#161B22"><title>2026-03-19: 0</title></rect><rect x="457.5" y="237.1" width="12.2" height="12.2" rx="2.8" fill="#161B22"><title>2026-03-20: 0</title></rect><rect x="457.5" y="252.1" width="12.2" height="12.2" rx="2.8" fill="#161B22"><title>2026-03-21: 0</title></rect><rect x="472.5" y="162.0" width="12.2" height="12.2" rx="2.8" fill="#161B22"><title>2026-03-22: 0</title></rect><rect x="472.5" y="177.0" width="12.2" height="12.2" rx="2.8" fill="#161B22"><title>2026-03-23: 0</title></rect><rect x="472.5" y="192.0" width="12.2" height="12.2" rx="2.8" fill="#161B22"><title>2026-03-24: 0</title></rect><rect x="472.5" y="207.1" width="12.2" height="12.2" rx="2.8" fill="#161B22"><title>2026-03-25: 0</title></rect><rect x="472.5" y="222.1" width="12.2" height="12.2" rx="2.8" fill="#161B22"><title>2026-03-26: 0</title></rect><rect x="472.5" y="237.1" width="12.2" height="12.2" rx="2.8" fill="#161B22"><title>2026-03-27: 0</title></rect><rect x="472.5" y="252.1" width="12.2" height="12.2" rx="2.8" fill="#161B22"><title>2026-03-28: 0</title></rect><rect x="487.5" y="162.0" width="12.2" height="12.2" rx="2.8" fill="#161B22"><title>2026-03-29: 0</title></rect><rect x="487.5" y="177.0" width="12.2" height="12.2" rx="2.8" fill="#161B22"><title>2026-03-30: 0</title></rect><rect x="487.5" y="192.0" width="12.2" height="12.2" rx="2.8" fill="#161B22"><title>2026-03-31: 0</title></rect><rect x="487.5" y="207.1" width="12.2" height="12.2" rx="2.8" fill="#161B22"><title>2026-04-01: 0</title></rect><rect x="487.5" y="222.1" width="12.2" height="12.2" rx="2.8" fill="#161B22"><title>2026-04-02: 0</title></rect><rect x="487.5" y="237.1" width="12.2" height="12.2" rx="2.8" fill="#161B22"><title>2026-04-03: 0</title></rect><rect x="487.5" y="252.1" width="12.2" height="12.2" rx="2.8" fill="#161B22"><title>2026-04-04: 0</title></rect><rect x="502.6" y="162.0" width="12.2" height="12.2" rx="2.8" fill="#161B22"><title>2026-04-05: 0</title></rect><rect x="502.6" y="177.0" width="12.2" height="12.2" rx="2.8" fill="#161B22"><title>2026-04-06: 0</title></rect><rect x="502.6" y="192.0" width="12.2" height="12.2" rx="2.8" fill="#161B22"><title>2026-04-07: 0</title></rect><rect x="502.6" y="207.1" width="12.2" height="12.2" rx="2.8" fill="#161B22"><title>2026-04-08: 0</title></rect><rect x="502.6" y="222.1" width="12.2" height="12.2" rx="2.8" fill="#161B22"><title>2026-04-09: 0</title></rect><rect x="502.6" y="237.1" width="12.2" height="12.2" rx="2.8" fill="#161B22"><title>2026-04-10: 0</title></rect><rect x="502.6" y="252.1" width="12.2" height="12.2" rx="2.8" fill="#161B22"><title>2026-04-11: 0</title></rect><rect x="517.6" y="162.0" width="12.2" height="12.2" rx="2.8" fill="#161B22"><title>2026-04-12: 0</title></rect><rect x="517.6" y="177.0" width="12.2" height="12.2" rx="2.8" fill="#161B22"><title>2026-04-13: 0</title></rect><rect x="517.6" y="192.0" width="12.2" height="12.2" rx="2.8" fill="#161B22"><title>2026-04-14: 0</title></rect><rect x="517.6" y="207.1" width="12.2" height="12.2" rx="2.8" fill="#161B22"><title>2026-04-15: 0</title></rect><rect x="517.6" y="222.1" width="12.2" height="12.2" rx="2.8" fill="#161B22"><title>2026-04-16: 0</title></rect><rect x="517.6" y="237.1" width="12.2" height="12.2" rx="2.8" fill="#161B22"><title>2026-04-17: 0</title></rect><rect x="517.6" y="252.1" width="12.2" height="12.2" rx="2.8" fill="#161B22"><title>2026-04-18: 0</title></rect><rect x="532.6" y="162.0" width="12.2" height="12.2" rx="2.8" fill="#161B22"><title>2026-04-19: 0</title></rect><rect x="532.6" y="177.0" width="12.2" height="12.2" rx="2.8" fill="#161B22"><title>2026-04-20: 0</title></rect><rect x="532.6" y="192.0" width="12.2" height="12.2" rx="2.8" fill="#161B22"><title>2026-04-21: 0</title></rect><rect x="532.6" y="207.1" width="12.2" height="12.2" rx="2.8" fill="#161B22"><title>2026-04-22: 0</title></rect><rect x="532.6" y="222.1" width="12.2" height="12.2" rx="2.8" fill="#161B22"><title>2026-04-23: 0</title></rect><rect x="532.6" y="237.1" width="12.2" height="12.2" rx="2.8" fill="#161B22"><title>2026-04-24: 0</title></rect><rect x="532.6" y="252.1" width="12.2" height="12.2" rx="2.8" fill="#161B22"><title>2026-04-25: 0</title></rect><rect x="547.6" y="162.0" width="12.2" height="12.2" rx="2.8" fill="#161B22"><title>2026-04-26: 0</title></rect><rect x="547.6" y="177.0" width="12.2" height="12.2" rx="2.8" fill="#161B22"><title>2026-04-27: 0</title></rect><rect x="547.6" y="192.0" width="12.2" height="12.2" rx="2.8" fill="#161B22"><title>2026-04-28: 0</title></rect><rect x="547.6" y="207.1" width="12.2" height="12.2" rx="2.8" fill="#161B22"><title>2026-04-29: 0</title></rect><rect x="547.6" y="222.1" width="12.2" height="12.2" rx="2.8" fill="#161B22"><title>2026-04-30: 0</title></rect><rect x="547.6" y="237.1" width="12.2" height="12.2" rx="2.8" fill="#161B22"><title>2026-05-01: 0</title></rect><rect x="547.6" y="252.1" width="12.2" height="12.2" rx="2.8" fill="#161B22"><title>2026-05-02: 0</title></rect><rect x="562.6" y="162.0" width="12.2" height="12.2" rx="2.8" fill="#161B22"><title>2026-05-03: 0</title></rect><rect x="562.6" y="177.0" width="12.2" height="12.2" rx="2.8" fill="#161B22"><title>2026-05-04: 0</title></rect><rect x="562.6" y="192.0" width="12.2" height="12.2" rx="2.8" fill="#161B22"><title>2026-05-05: 0</title></rect><rect x="562.6" y="207.1" width="12.2" height="12.2" rx="2.8" fill="#161B22"><title>2026-05-06: 0</title></rect><rect x="562.6" y="222.1" width="12.2" height="12.2" rx="2.8" fill="#161B22"><title>2026-05-07: 0</title></rect><rect x="562.6" y="237.1" width="12.2" height="12.2" rx="2.8" fill="#161B22"><title>2026-05-08: 0</title></rect><rect x="562.6" y="252.1" width="12.2" height="12.2" rx="2.8" fill="#161B22"><title>2026-05-09: 0</title></rect><rect x="577.7" y="162.0" width="12.2" height="12.2" rx="2.8" fill="#161B22"><title>2026-05-10: 0</title></rect><rect x="577.7" y="177.0" width="12.2" height="12.2" rx="2.8" fill="#161B22"><title>2026-05-11: 0</title></rect><rect x="577.7" y="192.0" width="12.2" height="12.2" rx="2.8" fill="#161B22"><title>2026-05-12: 0</title></rect><rect x="577.7" y="207.1" width="12.2" height="12.2" rx="2.8" fill="#161B22"><title>2026-05-13: 0</title></rect><rect x="577.7" y="222.1" width="12.2" height="12.2" rx="2.8" fill="#161B22"><title>2026-05-14: 0</title></rect><rect x="577.7" y="237.1" width="12.2" height="12.2" rx="2.8" fill="#161B22"><title>2026-05-15: 0</title></rect><rect x="577.7" y="252.1" width="12.2" height="12.2" rx="2.8" fill="#161B22"><title>2026-05-16: 0</title></rect><rect x="592.7" y="162.0" width="12.2" height="12.2" rx="2.8" fill="#161B22"><title>2026-05-17: 0</title></rect><rect x="592.7" y="177.0" width="12.2" height="12.2" rx="2.8" fill="#161B22"><title>2026-05-18: 0</title></rect><rect x="592.7" y="192.0" width="12.2" height="12.2" rx="2.8" fill="#161B22"><title>2026-05-19: 0</title></rect><rect x="592.7" y="207.1" width="12.2" height="12.2" rx="2.8" fill="#161B22"><title>2026-05-20: 0</title></rect><rect x="592.7" y="222.1" width="12.2" height="12.2" rx="2.8" fill="#161B22"><title>2026-05-21: 0</title></rect><rect x="592.7" y="237.1" width="12.2" height="12.2" rx="2.8" fill="#161B22"><title>2026-05-22: 0</title></rect><rect x="592.7" y="252.1" width="12.2" height="12.2" rx="2.8" fill="#161B22"><title>2026-05-23: 0</title></rect><rect x="607.7" y="162.0" width="12.2" height="12.2" rx="2.8" fill="#161B22"><title>2026-05-24: 0</title></rect><rect x="607.7" y="177.0" width="12.2" height="12.2" rx="2.8" fill="#161B22"><title>2026-05-25: 0</title></rect><rect x="607.7" y="192.0" width="12.2" height="12.2" rx="2.8" fill="#161B22"><title>2026-05-26: 0</title></rect><rect x="607.7" y="207.1" width="12.2" height="12.2" rx="2.8" fill="#161B22"><title>2026-05-27: 0</title></rect><rect x="607.7" y="222.1" width="12.2" height="12.2" rx="2.8" fill="#161B22"><title>2026-05-28: 0</title></rect><rect x="607.7" y="237.1" width="12.2" height="12.2" rx="2.8" fill="#161B22"><title>2026-05-29: 0</title></rect><rect x="607.7" y="252.1" width="12.2" height="12.2" rx="2.8" fill="#161B22"><title>2026-05-30: 0</title></rect><rect x="622.7" y="162.0" width="12.2" height="12.2" rx="2.8" fill="#161B22"><title>2026-05-31: 0</title></rect><rect x="622.7" y="177.0" width="12.2" height="12.2" rx="2.8" fill="#0E4429"><title>2026-06-01: 2</title></rect><rect x="622.7" y="192.0" width="12.2" height="12.2" rx="2.8" fill="#0E4429"><title>2026-06-02: 5</title></rect><rect x="622.7" y="207.1" width="12.2" height="12.2" rx="2.8" fill="#161B22"><title>2026-06-03: 0</title></rect><rect x="622.7" y="222.1" width="12.2" height="12.2" rx="2.8" fill="#161B22"><title>2026-06-04: 0</title></rect><rect x="622.7" y="237.1" width="12.2" height="12.2" rx="2.8" fill="#161B22"><title>2026-06-05: 0</title></rect><rect x="622.7" y="252.1" width="12.2" height="12.2" rx="2.8" fill="#161B22"><title>2026-06-06: 0</title></rect><rect x="637.7" y="162.0" width="12.2" height="12.2" rx="2.8" fill="#161B22"><title>2026-06-07: 0</title></rect><rect x="637.7" y="177.0" width="12.2" height="12.2" rx="2.8" fill="#161B22"><title>2026-06-08: 0</title></rect><rect x="637.7" y="192.0" width="12.2" height="12.2" rx="2.8" fill="#0E4429"><title>2026-06-09: 1</title></rect><rect x="637.7" y="207.1" width="12.2" height="12.2" rx="2.8" fill="#161B22"><title>2026-06-10: 0</title></rect><rect x="637.7" y="222.1" width="12.2" height="12.2" rx="2.8" fill="#161B22"><title>2026-06-11: 0</title></rect><rect x="637.7" y="237.1" width="12.2" height="12.2" rx="2.8" fill="#161B22"><title>2026-06-12: 0</title></rect><rect x="637.7" y="252.1" width="12.2" height="12.2" rx="2.8" fill="#161B22"><title>2026-06-13: 0</title></rect><rect x="652.8" y="162.0" width="12.2" height="12.2" rx="2.8" fill="#161B22"><title>2026-06-14: 0</title></rect><rect x="652.8" y="177.0" width="12.2" height="12.2" rx="2.8" fill="#161B22"><title>2026-06-15: 0</title></rect><rect x="652.8" y="192.0" width="12.2" height="12.2" rx="2.8" fill="#161B22"><title>2026-06-16: 0</title></rect><rect x="652.8" y="207.1" width="12.2" height="12.2" rx="2.8" fill="#161B22"><title>2026-06-17: 0</title></rect><rect x="652.8" y="222.1" width="12.2" height="12.2" rx="2.8" fill="#161B22"><title>2026-06-18: 0</title></rect><rect x="652.8" y="237.1" width="12.2" height="12.2" rx="2.8" fill="#161B22"><title>2026-06-19: 0</title></rect><rect x="652.8" y="252.1" width="12.2" height="12.2" rx="2.8" fill="#0E4429"><title>2026-06-20: 6</title></rect><rect x="667.8" y="162.0" width="12.2" height="12.2" rx="2.8" fill="#0E4429"><title>2026-06-21: 2</title></rect><rect x="667.8" y="177.0" width="12.2" height="12.2" rx="2.8" fill="#161B22"><title>2026-06-22: 0</title></rect><rect x="667.8" y="192.0" width="12.2" height="12.2" rx="2.8" fill="#161B22"><title>2026-06-23: 0</title></rect><rect x="667.8" y="207.1" width="12.2" height="12.2" rx="2.8" fill="#161B22"><title>2026-06-24: 0</title></rect><rect x="667.8" y="222.1" width="12.2" height="12.2" rx="2.8" fill="#161B22"><title>2026-06-25: 0</title></rect><rect x="667.8" y="237.1" width="12.2" height="12.2" rx="2.8" fill="#161B22"><title>2026-06-26: 0</title></rect><rect x="667.8" y="252.1" width="12.2" height="12.2" rx="2.8" fill="#161B22"><title>2026-06-27: 0</title></rect><rect x="682.8" y="162.0" width="12.2" height="12.2" rx="2.8" fill="#161B22"><title>2026-06-28: 0</title></rect><rect x="682.8" y="177.0" width="12.2" height="12.2" rx="2.8" fill="#161B22"><title>2026-06-29: 0</title></rect><rect x="682.8" y="192.0" width="12.2" height="12.2" rx="2.8" fill="#161B22"><title>2026-06-30: 0</title></rect><rect x="682.8" y="207.1" width="12.2" height="12.2" rx="2.8" fill="#161B22"><title>2026-07-01: 0</title></rect><rect x="682.8" y="222.1" width="12.2" height="12.2" rx="2.8" fill="#161B22"><title>2026-07-02: 0</title></rect><rect x="682.8" y="237.1" width="12.2" height="12.2" rx="2.8" fill="#161B22"><title>2026-07-03: 0</title></rect><rect x="682.8" y="252.1" width="12.2" height="12.2" rx="2.8" fill="#26A641"><animate attributeName="opacity" values="1;.72;1" dur="3.4s" begin="-2.8s" repeatCount="indefinite"/><title>2026-07-04: 21</title></rect><rect x="697.8" y="162.0" width="12.2" height="12.2" rx="2.8" fill="#161B22"><title>2026-07-05: 0</title></rect><rect x="697.8" y="177.0" width="12.2" height="12.2" rx="2.8" fill="#161B22"><title>2026-07-06: 0</title></rect><rect x="697.8" y="192.0" width="12.2" height="12.2" rx="2.8" fill="#39D353"><animate attributeName="opacity" values="1;.72;1" dur="3.4s" begin="-3.1s" repeatCount="indefinite"/><title>2026-07-07: 51</title></rect><rect x="697.8" y="207.1" width="12.2" height="12.2" rx="2.8" fill="#26A641"><animate attributeName="opacity" values="1;.72;1" dur="3.4s" begin="-3.2s" repeatCount="indefinite"/><title>2026-07-08: 21</title></rect><rect x="697.8" y="222.1" width="12.2" height="12.2" rx="2.8" fill="#39D353"><animate attributeName="opacity" values="1;.72;1" dur="3.4s" begin="-3.3s" repeatCount="indefinite"/><title>2026-07-09: 56</title></rect><rect x="697.8" y="237.1" width="12.2" height="12.2" rx="2.8" fill="#161B22"><title>2026-07-10: 0</title></rect><rect x="697.8" y="252.1" width="12.2" height="12.2" rx="2.8" fill="#161B22"><title>2026-07-11: 0</title></rect><rect x="712.8" y="162.0" width="12.2" height="12.2" rx="2.8" fill="#006D32"><title>2026-07-12: 16</title></rect><rect x="712.8" y="177.0" width="12.2" height="12.2" rx="2.8" fill="#26A641"><animate attributeName="opacity" values="1;.72;1" dur="3.4s" begin="-0.3s" repeatCount="indefinite"/><title>2026-07-13: 19</title></rect><rect x="712.8" y="192.0" width="12.2" height="12.2" rx="2.8" fill="#26A641"><animate attributeName="opacity" values="1;.72;1" dur="3.4s" begin="-0.4s" repeatCount="indefinite"/><title>2026-07-14: 22</title></rect><rect x="712.8" y="207.1" width="12.2" height="12.2" rx="2.8" fill="#161B22"><title>2026-07-15: 0</title></rect><rect x="712.8" y="222.1" width="12.2" height="12.2" rx="2.8" fill="#161B22"><title>2026-07-16: 0</title></rect><rect x="712.8" y="237.1" width="12.2" height="12.2" rx="2.8" fill="#006D32"><title>2026-07-17: 11</title></rect><rect x="712.8" y="252.1" width="12.2" height="12.2" rx="2.8" fill="#0E4429"><title>2026-07-18: 2</title></rect><rect x="727.8" y="162.0" width="12.2" height="12.2" rx="2.8" fill="#161B22"><title>2026-07-19: 0</title></rect><rect x="727.8" y="177.0" width="12.2" height="12.2" rx="2.8" fill="#39D353"><animate attributeName="opacity" values="1;.72;1" dur="3.4s" begin="-1s" repeatCount="indefinite"/><title>2026-07-20: 39</title></rect><rect x="727.8" y="192.0" width="12.2" height="12.2" rx="2.8" fill="#0E4429"><title>2026-07-21: 4</title></rect><rect x="727.8" y="207.1" width="12.2" height="12.2" rx="2.8" fill="#0E4429"><title>2026-07-22: 6</title></rect><rect x="727.8" y="222.1" width="12.2" height="12.2" rx="2.8" fill="#006D32"><title>2026-07-23: 16</title></rect><rect x="727.8" y="237.1" width="12.2" height="12.2" rx="2.8" fill="#161B22"><title>2026-07-24: 0</title></rect><rect x="727.8" y="252.1" width="12.2" height="12.2" rx="2.8" fill="#161B22"><title>2026-07-25: 0</title></rect><rect x="742.9" y="162.0" width="12.2" height="12.2" rx="2.8" fill="#161B22"><title>2026-07-26: 0</title></rect><rect x="742.9" y="177.0" width="12.2" height="12.2" rx="2.8" fill="#39D353"><animate attributeName="opacity" values="1;.72;1" dur="3.4s" begin="-1.7s" repeatCount="indefinite"/><title>2026-07-27: 56</title></rect><rect x="742.9" y="192.0" width="12.2" height="12.2" rx="2.8" fill="#161B22"><title>2026-07-28: 0</title></rect><rect x="742.9" y="207.1" width="12.2" height="12.2" rx="2.8" fill="#26A641"><animate attributeName="opacity" values="1;.72;1" dur="3.4s" begin="-1.9s" repeatCount="indefinite"/><title>2026-07-29: 18</title></rect><rect x="742.9" y="222.1" width="12.2" height="12.2" rx="2.8" fill="#161B22"><title>2026-07-30: 0</title></rect><rect x="742.9" y="237.1" width="12.2" height="12.2" rx="2.8" fill="#006D32"><title>2026-07-31: 8</title></rect><rect x="742.9" y="252.1" width="12.2" height="12.2" rx="2.8" fill="#006D32"><title>2026-08-01: 10</title></rect><rect x="757.9" y="162.0" width="12.2" height="12.2" rx="2.8" fill="#161B22"><title>2026-08-02: 0</title></rect><rect x="757.9" y="177.0" width="12.2" height="12.2" rx="2.8" fill="#161B22"><title>2026-08-03: 0</title></rect><rect x="757.9" y="192.0" width="12.2" height="12.2" rx="2.8" fill="#161B22"><title>2026-08-04: 0</title></rect><rect x="757.9" y="207.1" width="12.2" height="12.2" rx="2.8" fill="#161B22"><title>2026-08-05: 0</title></rect><rect x="757.9" y="222.1" width="12.2" height="12.2" rx="2.8" fill="#006D32"><title>2026-08-06: 9</title></rect><rect x="757.9" y="237.1" width="12.2" height="12.2" rx="2.8" fill="#161B22"><title>2026-08-07: 0</title></rect><rect x="757.9" y="252.1" width="12.2" height="12.2" rx="2.8" fill="#161B22"><title>2026-08-08: 0</title></rect><rect x="772.9" y="162.0" width="12.2" height="12.2" rx="2.8" fill="#161B22"><title>2026-08-09: 0</title></rect><rect x="772.9" y="177.0" width="12.2" height="12.2" rx="2.8" fill="#161B22"><title>2026-08-10: 0</title></rect><rect x="772.9" y="192.0" width="12.2" height="12.2" rx="2.8" fill="#26A641"><animate attributeName="opacity" values="1;.72;1" dur="3.4s" begin="-3.2s" repeatCount="indefinite"/><title>2026-08-11: 27</title></rect><rect x="772.9" y="207.1" width="12.2" height="12.2" rx="2.8" fill="#006D32"><title>2026-08-12: 10</title></rect><rect x="772.9" y="222.1" width="12.2" height="12.2" rx="2.8" fill="#161B22"><title>2026-08-13: 0</title></rect><rect x="772.9" y="237.1" width="12.2" height="12.2" rx="2.8" fill="#006D32"><title>2026-08-14: 7</title></rect><rect x="772.9" y="252.1" width="12.2" height="12.2" rx="2.8" fill="#0E4429"><title>2026-08-15: 6</title></rect><rect x="787.9" y="162.0" width="12.2" height="12.2" rx="2.8" fill="#39D353"><animate attributeName="opacity" values="1;.72;1" dur="3.4s" begin="-0.3s" repeatCount="indefinite"/><title>2026-08-16: 49</title></rect><rect x="787.9" y="177.0" width="12.2" height="12.2" rx="2.8" fill="#161B22"><title>2026-08-17: 0</title></rect><rect x="787.9" y="192.0" width="12.2" height="12.2" rx="2.8" fill="#26A641"><animate attributeName="opacity" values="1;.72;1" dur="3.4s" begin="-0.5s" repeatCount="indefinite"/><title>2026-08-18: 25</title></rect><rect x="787.9" y="207.1" width="12.2" height="12.2" rx="2.8" fill="#161B22"><title>2026-08-19: 0</title></rect><rect x="787.9" y="222.1" width="12.2" height="12.2" rx="2.8" fill="#006D32"><title>2026-08-20: 10</title></rect><rect x="787.9" y="237.1" width="12.2" height="12.2" rx="2.8" fill="#0E4429"><title>2026-08-21: 4</title></rect><rect x="787.9" y="252.1" width="12.2" height="12.2" rx="2.8" fill="#161B22"><title>2026-08-22: 0</title></rect><rect x="802.9" y="162.0" width="12.2" height="12.2" rx="2.8" fill="#161B22"><title>2026-08-23: 0</title></rect><rect x="802.9" y="177.0" width="12.2" height="12.2" rx="2.8" fill="#006D32"><title>2026-08-24: 14</title></rect><rect x="802.9" y="192.0" width="12.2" height="12.2" rx="2.8" fill="#39D353"><animate attributeName="opacity" values="1;.72;1" dur="3.4s" begin="-1.2s" repeatCount="indefinite"/><title>2026-08-25: 38</title></rect><rect x="802.9" y="207.1" width="12.2" height="12.2" rx="2.8" fill="#161B22"><title>2026-08-26: 0</title></rect><rect x="802.9" y="222.1" width="12.2" height="12.2" rx="2.8" fill="#26A641"><animate attributeName="opacity" values="1;.72;1" dur="3.4s" begin="-1.4s" repeatCount="indefinite"/><title>2026-08-27: 20</title></rect><rect x="802.9" y="237.1" width="12.2" height="12.2" rx="2.8" fill="#0E4429"><title>2026-08-28: 6</title></rect><rect x="802.9" y="252.1" width="12.2" height="12.2" rx="2.8" fill="#161B22"><title>2026-08-29: 0</title></rect><rect x="818.0" y="162.0" width="12.2" height="12.2" rx="2.8" fill="#0E4429"><title>2026-08-30: 5</title></rect><rect x="818.0" y="177.0" width="12.2" height="12.2" rx="2.8" fill="#161B22"><title>2026-08-31: 0</title></rect><rect x="818.0" y="192.0" width="12.2" height="12.2" rx="2.8" fill="#161B22"><title>2026-09-01: 0</title></rect><rect x="818.0" y="207.1" width="12.2" height="12.2" rx="2.8" fill="#39D353"><animate attributeName="opacity" values="1;.72;1" dur="3.4s" begin="-2s" repeatCount="indefinite"/><title>2026-09-02: 34</title></rect><rect x="818.0" y="222.1" width="12.2" height="12.2" rx="2.8" fill="#0E4429"><title>2026-09-03: 1</title></rect><rect x="818.0" y="237.1" width="12.2" height="12.2" rx="2.8" fill="#161B22"><title>2026-09-04: 0</title></rect><rect x="818.0" y="252.1" width="12.2" height="12.2" rx="2.8" fill="#161B22"><title>2026-09-05: 0</title></rect><rect x="833.0" y="162.0" width="12.2" height="12.2" rx="2.8" fill="#161B22"><title>2026-09-06: 0</title></rect><rect x="833.0" y="177.0" width="12.2" height="12.2" rx="2.8" fill="#39D353"><animate attributeName="opacity" values="1;.72;1" dur="3.4s" begin="-2.5s" repeatCount="indefinite"/><title>2026-09-07: 53</title></rect><rect x="833.0" y="192.0" width="12.2" height="12.2" rx="2.8" fill="#161B22"><title>2026-09-08: 0</title></rect><rect x="833.0" y="207.1" width="12.2" height="12.2" rx="2.8" fill="#26A641"><animate attributeName="opacity" values="1;.72;1" dur="3.4s" begin="-2.7s" repeatCount="indefinite"/><title>2026-09-09: 30</title></rect><rect x="833.0" y="222.1" width="12.2" height="12.2" rx="2.8" fill="#26A641"><animate attributeName="opacity" values="1;.72;1" dur="3.4s" begin="-2.8s" repeatCount="indefinite"/><title>2026-09-10: 21</title></rect><rect x="833.0" y="237.1" width="12.2" height="12.2" rx="2.8" fill="#161B22"><title>2026-09-11: 0</title></rect>
  <text x="52" y="299.1320754716981" font-family="system-ui,-apple-system,'Segoe UI',Roboto,'Helvetica Neue',Arial,sans-serif" font-size="27" fill="#8A93A3">less</text>
  <rect x="112" y="286.1320754716981" width="14" height="14" rx="3" fill="#161B22"/><rect x="133" y="286.1320754716981" width="14" height="14" rx="3" fill="#0E4429"/><rect x="154" y="286.1320754716981" width="14" height="14" rx="3" fill="#006D32"/><rect x="175" y="286.1320754716981" width="14" height="14" rx="3" fill="#26A641"/><rect x="196" y="286.1320754716981" width="14" height="14" rx="3" fill="#39D353"/>
  <text x="224" y="299.1320754716981" font-family="system-ui,-apple-system,'Segoe UI',Roboto,'Helvetica Neue',Arial,sans-serif" font-size="27" fill="#8A93A3">more</text>
  <text x="848" y="299.1320754716981" text-anchor="end" font-family="system-ui,-apple-system,'Segoe UI',Roboto,'Helvetica Neue',Arial,sans-serif" font-size="27" fill="#8A93A3">longest 11d · best day 56</text>
</svg>